<?xml version="1.0" encoding="UTF-8"?>
<svg width="524px" height="192px" viewBox="0 0 524 192" version="1.1" xmlns="http://www.w3.org/2000/svg" xmlns:xlink="http://www.w3.org/1999/xlink">
    <!-- Generator: Sketch 48.1 (47250) - http://www.bohemiancoding.com/sketch -->
    <title>Google Play</title>
    <desc>Created with Sketch.</desc>
    <defs>
        <rect id="path-1" x="0" y="0" width="524" height="192" rx="20"></rect>
        <linearGradient x1="60.1573701%" y1="91.8476975%" x2="33.5579439%" y2="-59.5891331%" id="linearGradient-2">
            <stop stop-color="#D6FFA1" offset="0%"></stop>
            <stop stop-color="#93E2A7" offset="32.64%"></stop>
            <stop stop-color="#00A3B5" offset="100%"></stop>
        </linearGradient>
        <linearGradient x1="-32.1721676%" y1="-129.73572%" x2="80.1668869%" y2="113.997954%" id="linearGradient-3">
            <stop stop-color="#FF177B" offset="0%"></stop>
            <stop stop-color="#FFA976" offset="67.21%"></stop>
            <stop stop-color="#FFEC73" offset="100%"></stop>
        </linearGradient>
        <linearGradient x1="50.8193668%" y1="74.6634124%" x2="-0.0289932314%" y2="-29.3364075%" id="linearGradient-4">
            <stop stop-color="#63FFD4" offset="0%"></stop>
            <stop stop-color="#32A0BA" offset="48.54%"></stop>
            <stop stop-color="#1262A9" offset="83.49%"></stop>
            <stop stop-color="#064AA2" offset="100%"></stop>
        </linearGradient>
        <linearGradient x1="119.507988%" y1="35.5351563%" x2="-23.112411%" y2="61.0134747%" id="linearGradient-5">
            <stop stop-color="#FF4521" offset="0%"></stop>
            <stop stop-color="#D43E65" offset="34.11%"></stop>
            <stop stop-color="#9F36B9" offset="79.35%"></stop>
            <stop stop-color="#8A33DB" offset="100%"></stop>
        </linearGradient>
    </defs>
    <g id="Badges" stroke="none" stroke-width="1" fill="none" fill-rule="evenodd" transform="translate(-138.000000, -88.000000)">
        <g id="Google-Play" transform="translate(138.000000, 88.000000)">
            <g id="btn">
                <use fill="#000000" fill-rule="evenodd" xlink:href="#path-1"></use>
                <rect stroke="#D6D6D6" stroke-width="6" x="3" y="3" width="518" height="186" rx="20"></rect>
            </g>
            <g id="icon-+-Google-play-+-Get-it-on" transform="translate(34.000000, 78.000000)">
                <g id="google-play-icon">
                    <polygon id="Shape" points="45.8 44 59.2 30.4 45.8 44 2.6 0.8 45.8 44 2.6 87.2 45.8 44 59.4 57.6"></polygon>
                    <path d="M59.2,30.4 L6.6,1.6 C5.2,0.8 3.8,0.6 2.6,1 L45.8,44 L59.2,30.4 L59.2,30.4 Z" id="Shape" fill="url(#linearGradient-2)"></path>
                    <path d="M59.4,57.6 L77.4,47.8 C81,45.8 81,42.6 77.4,40.6 L59.4,30.6 L45.8,44 L59.4,57.6 L59.4,57.6 Z" id="Shape" fill="url(#linearGradient-3)"></path>
                    <path d="M2.6,0.8 C1,1.4 0,3 0,5.4 L0,82.6 C0,85 1,86.6 2.6,87.2 L45.8,44 L2.6,0.8 L2.6,0.8 Z" id="Shape" fill="url(#linearGradient-4)"></path>
                    <path d="M2.6,87.2 C3.8,87.6 5.2,87.4 6.6,86.6 L59.2,57.6 L45.8,44 L2.6,87.2 L2.6,87.2 Z" id="Shape" fill="url(#linearGradient-5)"></path>
                </g>
                <g id="google-play" transform="translate(98.000000, 10.000000)" fill="#FFFFFF">
                    <polyline id="Fill-3" points="337.444701 68 360 16 352.653891 16 342.221197 41.9260808 342.073732 41.9260808 331.347804 16 324 16 338.841377 49.8073919 330.466406 68 337.444701 68"></polyline>
                    <path d="M306,16 C296.973013,16 292.641549,21.387784 291.39528,24.6627773 L297.558895,27.282772 C298.806858,23.9338814 302.403429,22.1150004 306.147317,22.1150004 C311.21198,22.1150004 315.54175,25.3899938 315.54175,30.7777778 L315.54175,31.7972244 C314.146471,30.9961107 310.624405,29.612216 305.779871,29.612216 C297.338766,29.612216 290,33.9805533 290,42.0605498 C290,49.4872271 296.090803,54 303.431263,54 C309.596571,54 313.265954,50.8694422 315.247116,47.8849996 L315.54175,47.8849996 L315.54175,52.8344383 L322,52.8344383 L322,31.2866614 C322,21.2416689 314.806858,16 306,16 L306,16 Z M304.531908,47.8849996 C301.009842,47.8849996 297.045825,45.9922213 297.045825,42.2066649 C297.045825,38.929992 299.834692,35.1461151 306.955022,35.1461151 C312.678379,35.1461151 315.54175,37.4738796 315.54175,37.4738796 C315.54175,43.2983294 309.889512,47.8849996 304.531908,47.8849996 L304.531908,47.8849996 Z" id="Fill-2"></path>
                    <polygon id="Fill-1" points="280 2 286 2 286 54 280 54"></polygon>
                    <path d="M257.727398,2 L240,2 L240,54 L246.684019,54 L246.684019,32.9386177 L257.727398,32.9386177 C266.370699,32.9386177 274,26.5481553 274,17.4701466 C274,8.39213791 266.370699,2 257.727398,2 L257.727398,2 Z M257.871537,26.5481553 L246.684019,26.5481553 L246.684019,8.39213791 L257.871537,8.39213791 C263.828157,8.39213791 267.170167,13.3299178 267.170167,17.4701466 C267.170167,21.6086999 263.828157,26.5481553 257.871537,26.5481553 L257.871537,26.5481553 Z" id="Fill-4"></path>
                    <path d="M192.971168,36.2924325 C192.769282,29.5363471 198.28582,26.0937241 202.256247,26.0937241 C205.351834,26.0937241 207.974672,27.6171552 208.849511,29.8012916 L192.971168,36.2924325 L192.971168,36.2924325 Z M202.861906,54.3053486 C211.002963,54.3053486 215.711957,49.4038748 217.663523,46.557377 L211.608622,42.5832091 C209.589761,45.4975989 206.83065,47.4184468 202.861906,47.4184468 C198.891478,47.4184468 196.065073,45.6300712 194.24978,42.1195562 L218,32.4507369 L217.192456,30.4636529 C215.711957,26.557377 211.20485,19.3376387 201.987066,19.3376387 C192.836577,19.3376387 185.233882,26.4249048 185.233882,36.8223216 C185.233882,46.6236132 192.769282,54.3053486 202.861906,54.3053486 L202.861906,54.3053486 Z" id="Fill-5"></path>
                    <polygon id="Path" points="173.66076 53.2455705 181.465341 53.2455705 181.465341 1.85461169 173.66076 1.85461169"></polygon>
                    <path d="M151.389356,70 C142.777231,70 137.595487,64.3053486 135.643921,59.6688193 L142.440754,56.8885577 C143.652071,59.7350555 146.611385,63.1130982 151.389356,63.1130982 C157.242371,63.1130982 160.876322,59.5363471 160.876322,52.8481537 L160.876322,50.3311807 L160.60714,50.3311807 C158.85746,52.4507369 155.492692,54.3053486 151.254765,54.3053486 C142.373458,54.3053486 134.232401,46.6898493 134.232401,36.8885577 C134.232401,27.02103 142.373458,19.3376387 151.254765,19.3376387 C155.492692,19.3376387 158.85746,21.1922504 160.60714,23.2455705 L160.876322,23.2455705 L160.876322,20.3974168 L168.27713,20.3974168 L168.27713,51.7883756 C168.27713,64.7027654 160.539845,70 151.389356,70 Z M151.927719,47.4184468 C157.242371,47.4184468 161.414685,42.9806259 161.414685,36.8885577 C161.414685,30.7285974 157.242371,26.2261964 151.927719,26.2261964 C146.544089,26.2261964 142.036982,30.7285974 142.036982,36.8885577 C142.036982,42.9806259 146.544089,47.4184468 151.927719,47.4184468 Z" id="Path"></path>
                    <path d="M113.172313,54.3053486 C103.348871,54.3053486 95.3424038,46.8885577 95.3424038,36.8223216 C95.3424038,26.6898493 103.348871,19.3376387 113.172313,19.3376387 C122.995755,19.3376387 131.002223,26.6898493 131.002223,36.8223216 C131.002223,46.8885577 122.995755,54.3053486 113.172313,54.3053486 Z M113.172313,47.4184468 C118.554261,47.4184468 123.197642,43.0468621 123.197642,36.8223216 C123.197642,30.5298891 118.554261,26.2261964 113.172313,26.2261964 C107.788683,26.2261964 103.146985,30.5298891 103.146985,36.8223216 C103.146985,43.0468621 107.788683,47.4184468 113.172313,47.4184468 Z" id="Path"></path>
                    <path d="M74.2823164,54.3053486 C64.4588742,54.3053486 56.4507247,46.8885577 56.4507247,36.8223216 C56.4507247,26.6898493 64.4588742,19.3376387 74.2823164,19.3376387 C84.1057587,19.3376387 92.1122258,26.6898493 92.1122258,36.8223216 C92.1122258,46.8885577 84.1057587,54.3053486 74.2823164,54.3053486 Z M74.2823164,47.4184468 C79.664264,47.4184468 84.3076448,43.0468621 84.3076448,36.8223216 C84.3076448,30.5298891 79.664264,26.2261964 74.2823164,26.2261964 C68.8986865,26.2261964 64.2569881,30.5298891 64.2569881,36.8223216 C64.2569881,43.0468621 68.8986865,47.4184468 74.2823164,47.4184468 Z" id="Path"></path>
                    <path d="M27.9898285,54.3053486 C36.1998642,54.3053486 42.3893562,51.6559033 47.2329408,46.6898493 C52.2127985,41.7883756 53.7605921,34.9014738 53.7605921,29.3376387 C53.7605921,27.6171552 53.6260013,26.027488 53.3568198,24.7027654 L27.9898285,24.7027654 L27.9898285,32.1195562 L46.021624,32.1195562 C45.483261,36.2924325 44.0717406,39.3376387 41.9182886,41.4571949 C39.293769,44.040404 35.1887512,46.8885577 27.9898285,46.8885577 C16.8877742,46.8885577 8.20835327,38.0808081 8.20835327,27.1535022 C8.20835327,16.2261964 16.8877742,7.41844676 27.9898285,7.41844676 C33.9791168,7.41844676 38.3516338,9.73505547 41.5818117,12.7156814 L46.8964639,7.48468289 C42.3893562,3.24557046 36.4000679,0 27.9898285,0 C12.7844387,0 0,12.1857923 0,27.1535022 C0,42.1195562 12.7844387,54.3053486 27.9898285,54.3053486 L27.9898285,54.3053486 Z" id="Path"></path>
                </g>
            </g>
            <path d="M134.094727,64 L134.094727,40.5390625 L141.313477,40.5390625 C143.375987,40.5390625 145.220939,41.0036575 146.848389,41.9328613 C148.475838,42.8620652 149.746089,44.183341 150.65918,45.8967285 C151.57227,47.610116 152.028809,49.557118 152.028809,51.737793 L152.028809,52.8173828 C152.028809,54.9980578 151.580327,56.9370032 150.68335,58.6342773 C149.786372,60.3315515 148.521493,61.6474563 146.888672,62.5820312 C145.255851,63.5166062 143.413584,63.9892578 141.361816,64 L134.094727,64 Z M138.928711,44.4545898 L138.928711,60.1166992 L141.265137,60.1166992 C143.155771,60.1166992 144.600581,59.4990296 145.599609,58.2636719 C146.598638,57.0283141 147.108887,55.261242 147.130371,52.9624023 L147.130371,51.7216797 C147.130371,49.3369021 146.636235,47.5295472 145.647949,46.2995605 C144.659663,45.0695739 143.214853,44.4545898 141.313477,44.4545898 L138.928711,44.4545898 Z M160.681641,64 L155.847656,64 L155.847656,40.5390625 L160.681641,40.5390625 L160.681641,64 Z M177.32666,57.8447266 C177.32666,56.9316361 177.004398,56.2307153 176.359863,55.7419434 C175.715329,55.2531714 174.555184,54.7375515 172.879395,54.1950684 C171.203605,53.6525852 169.876958,53.1181667 168.899414,52.5917969 C166.235338,51.1523366 164.90332,49.2133911 164.90332,46.7749023 C164.90332,45.5073179 165.260494,44.376714 165.974854,43.3830566 C166.689213,42.3893993 167.715081,41.613284 169.05249,41.0546875 C170.389899,40.496091 171.891105,40.2167969 173.556152,40.2167969 C175.231942,40.2167969 176.725091,40.5202606 178.035645,41.1271973 C179.346198,41.7341339 180.36401,42.5908148 181.089111,43.6972656 C181.814213,44.8037165 182.176758,46.0605398 182.176758,47.4677734 L177.342773,47.4677734 C177.342773,46.3935493 177.004398,45.5583526 176.327637,44.9621582 C175.650876,44.3659638 174.700201,44.0678711 173.475586,44.0678711 C172.293939,44.0678711 171.375492,44.3176245 170.720215,44.8171387 C170.064938,45.3166529 169.737305,45.9746053 169.737305,46.7910156 C169.737305,47.5537148 170.121334,48.1928685 170.889404,48.7084961 C171.657475,49.2241237 172.788078,49.7075173 174.28125,50.1586914 C177.031264,50.985844 179.034662,52.0117126 180.291504,53.2363281 C181.548346,54.4609436 182.176758,55.986319 182.176758,57.8125 C182.176758,59.8427836 181.408699,61.435297 179.872559,62.5900879 C178.336418,63.7448788 176.268568,64.3222656 173.668945,64.3222656 C171.864249,64.3222656 170.220711,63.9919467 168.738281,63.3312988 C167.255852,62.670651 166.125248,61.7656307 165.346436,60.6162109 C164.567623,59.4667911 164.178223,58.1347732 164.178223,56.6201172 L169.02832,56.6201172 C169.02832,59.2089973 170.57518,60.503418 173.668945,60.503418 C174.818365,60.503418 175.715329,60.2697777 176.359863,59.8024902 C177.004398,59.3352027 177.32666,58.6826214 177.32666,57.8447266 Z M190.281738,55.7338867 L190.281738,64 L185.447754,64 L185.447754,40.5390625 L194.600098,40.5390625 C196.361825,40.5390625 197.91137,40.8613249 199.248779,41.5058594 C200.586188,42.1503938 201.614742,43.0661562 202.334473,44.2531738 C203.054203,45.4401915 203.414062,46.7910081 203.414062,48.3056641 C203.414062,50.6045037 202.627205,52.4172297 201.053467,53.7438965 C199.479728,55.0705633 197.301772,55.7338867 194.519531,55.7338867 L190.281738,55.7338867 Z M190.281738,51.8183594 L194.600098,51.8183594 C195.878424,51.8183594 196.853268,51.5175811 197.524658,50.9160156 C198.196048,50.3144501 198.531738,49.4550837 198.531738,48.3378906 C198.531738,47.1884708 198.193363,46.2592809 197.516602,45.550293 C196.83984,44.841305 195.905279,44.4760743 194.712891,44.4545898 L190.281738,44.4545898 L190.281738,51.8183594 Z M226.004883,52.8012695 C226.004883,55.1108514 225.596684,57.1357335 224.780273,58.8759766 C223.963863,60.6162196 222.795662,61.9589796 221.275635,62.9042969 C219.755608,63.8496141 218.012705,64.3222656 216.046875,64.3222656 C214.102529,64.3222656 212.367683,63.8549851 210.842285,62.9204102 C209.316887,61.9858352 208.135258,60.6511317 207.297363,58.9162598 C206.459468,57.1813878 206.035156,55.1860464 206.024414,52.9301758 L206.024414,51.7700195 C206.024414,49.4604377 206.44067,47.427499 207.273193,45.6711426 C208.105717,43.9147861 209.281975,42.5666551 210.802002,41.626709 C212.322029,40.6867629 214.059561,40.2167969 216.014648,40.2167969 C217.969736,40.2167969 219.707268,40.6867629 221.227295,41.626709 C222.747322,42.5666551 223.92358,43.9147861 224.756104,45.6711426 C225.588627,47.427499 226.004883,49.4550666 226.004883,51.7539062 L226.004883,52.8012695 Z M221.106445,51.737793 C221.106445,49.2778197 220.66602,47.4086978 219.785156,46.1303711 C218.904292,44.8520444 217.647469,44.2128906 216.014648,44.2128906 C214.39257,44.2128906 213.141118,44.8439878 212.260254,46.1062012 C211.37939,47.3684145 210.933594,49.2187378 210.922852,51.6572266 L210.922852,52.8012695 C210.922852,55.1967893 211.363277,57.0551692 212.244141,58.3764648 C213.125004,59.6977605 214.39257,60.3583984 216.046875,60.3583984 C217.668953,60.3583984 218.915035,59.7219302 219.785156,58.4489746 C220.655278,57.176019 221.095703,55.3203247 221.106445,52.8818359 L221.106445,51.737793 Z M248.595703,64 L243.761719,64 L234.351562,48.5634766 L234.351562,64 L229.517578,64 L229.517578,40.5390625 L234.351562,40.5390625 L243.777832,56.0078125 L243.777832,40.5390625 L248.595703,40.5390625 L248.595703,64 Z M257.95752,64 L253.123535,64 L253.123535,40.5390625 L257.95752,40.5390625 L257.95752,64 Z M256.458984,34.206543 L261.534668,34.206543 L257.071289,39.2016602 L253.284668,39.2016602 L256.458984,34.206543 Z M271.105957,58.1831055 L276.42334,40.5390625 L281.805176,40.5390625 L273.635742,64 L268.592285,64 L260.455078,40.5390625 L265.820801,40.5390625 L271.105957,58.1831055 Z M298.12793,53.8325195 L288.84668,53.8325195 L288.84668,60.1166992 L299.739258,60.1166992 L299.739258,64 L284.012695,64 L284.012695,40.5390625 L299.707031,40.5390625 L299.707031,44.4545898 L288.84668,44.4545898 L288.84668,50.0458984 L298.12793,50.0458984 L298.12793,53.8325195 Z M307.40918,60.1166992 L317.67334,60.1166992 L317.67334,64 L302.575195,64 L302.575195,40.5390625 L307.40918,40.5390625 L307.40918,60.1166992 Z M347.740723,64 L342.906738,64 L333.496582,48.5634766 L333.496582,64 L328.662598,64 L328.662598,40.5390625 L333.496582,40.5390625 L342.922852,56.0078125 L342.922852,40.5390625 L347.740723,40.5390625 L347.740723,64 Z M371.233887,52.8012695 C371.233887,55.1108514 370.825688,57.1357335 370.009277,58.8759766 C369.192867,60.6162196 368.024666,61.9589796 366.504639,62.9042969 C364.984612,63.8496141 363.241709,64.3222656 361.275879,64.3222656 C359.331533,64.3222656 357.596687,63.8549851 356.071289,62.9204102 C354.545891,61.9858352 353.364262,60.6511317 352.526367,58.9162598 C351.688472,57.1813878 351.26416,55.1860464 351.253418,52.9301758 L351.253418,51.7700195 C351.253418,49.4604377 351.669674,47.427499 352.502197,45.6711426 C353.334721,43.9147861 354.510979,42.5666551 356.031006,41.626709 C357.551033,40.6867629 359.288564,40.2167969 361.243652,40.2167969 C363.19874,40.2167969 364.936272,40.6867629 366.456299,41.626709 C367.976326,42.5666551 369.152584,43.9147861 369.985107,45.6711426 C370.817631,47.427499 371.233887,49.4550666 371.233887,51.7539062 L371.233887,52.8012695 Z M366.335449,51.737793 C366.335449,49.2778197 365.895024,47.4086978 365.01416,46.1303711 C364.133296,44.8520444 362.876473,44.2128906 361.243652,44.2128906 C359.621574,44.2128906 358.370122,44.8439878 357.489258,46.1062012 C356.608394,47.3684145 356.162598,49.2187378 356.151855,51.6572266 L356.151855,52.8012695 C356.151855,55.1967893 356.592281,57.0551692 357.473145,58.3764648 C358.354008,59.6977605 359.621574,60.3583984 361.275879,60.3583984 C362.897957,60.3583984 364.144039,59.7219302 365.01416,58.4489746 C365.884282,57.176019 366.324707,55.3203247 366.335449,52.8818359 L366.335449,51.737793 Z" id="Disponível-no" fill="#FFFFFF"></path>
        </g>
    </g>
</svg>