<svg width="524" height="192" viewBox="0 0 524 192" xmlns="http://www.w3.org/2000/svg" xmlns:xlink="http://www.w3.org/1999/xlink"><title>App Store</title><defs><rect id="a" width="524" height="192" rx="20"/></defs><g fill="none" fill-rule="evenodd"><use fill="#000" xlink:href="#a"/><rect stroke="#D6D6D6" stroke-width="6" x="3" y="3" width="518" height="186" rx="20"/><path d="M111.76 94.17c-.115-12.83 10.506-19.073 10.992-19.363-6.015-8.77-15.339-9.969-18.615-10.064-7.831-.824-15.427 4.686-19.416 4.686-4.068 0-10.211-4.606-16.831-4.471-8.52.131-16.49 5.064-20.86 12.723-9.022 15.618-2.294 38.568 6.349 51.192 4.323 6.182 9.375 13.085 15.988 12.843 6.469-.267 8.885-4.125 16.692-4.125 7.735 0 10.004 4.125 16.748 3.97 6.943-.112 11.314-6.211 15.486-12.45 4.996-7.085 7.003-14.064 7.082-14.422-.163-.056-13.483-5.14-13.615-20.519zM99.021 56.439c3.48-4.352 5.86-10.271 5.2-16.279-5.037.223-11.335 3.484-14.961 7.74-3.21 3.75-6.075 9.896-5.335 15.676 5.657.422 11.465-2.854 15.096-7.137zm66.252-12.099h8.699c7.331 0 11.672 4.511 11.672 12.287 0 7.793-4.324 12.373-11.672 12.373h-8.7V44.34zm3.828 3.298v18.047h4.512c5.23 0 8.117-3.196 8.117-9.024 0-5.81-2.905-9.023-8.117-9.023H169.1zm31.474 21.704c-5.144 0-8.528-3.538-8.528-9.331 0-5.777 3.401-9.314 8.528-9.314 5.127 0 8.528 3.537 8.528 9.314 0 5.793-3.384 9.33-8.528 9.33zm0-3.042c2.906 0 4.768-2.29 4.768-6.29 0-3.981-1.88-6.271-4.768-6.271s-4.768 2.29-4.768 6.272c0 3.999 1.88 6.289 4.768 6.289zm39.045-15.28L234.698 69h-3.845l-3.777-13.467h-.085L223.248 69h-3.81l-4.94-17.979h3.692l3.28 14.15h.07l3.742-14.15h3.555l3.76 14.15h.085l3.281-14.15h3.657zM245.887 69V51.021h3.52v3.008h.086c.974-2.05 2.888-3.315 5.657-3.315 3.964 0 6.237 2.53 6.237 6.648V69h-3.708V58.08c0-2.7-1.265-4.187-3.828-4.187-2.598 0-4.273 1.845-4.273 4.63V69h-3.691zm23.203 0V44.34h3.691V69h-3.691zm19.22.342c-5.144 0-8.527-3.538-8.527-9.331 0-5.777 3.4-9.314 8.527-9.314 5.127 0 8.528 3.537 8.528 9.314 0 5.793-3.384 9.33-8.528 9.33zm0-3.042c2.906 0 4.768-2.29 4.768-6.29 0-3.981-1.88-6.271-4.768-6.271s-4.768 2.29-4.768 6.272c0 3.999 1.88 6.289 4.768 6.289zm21.682.085c2.58 0 4.597-1.777 4.597-4.118v-1.419l-4.426.274c-2.205.153-3.452 1.128-3.452 2.666 0 1.572 1.299 2.597 3.281 2.597zm-1.025 2.923c-3.52 0-5.982-2.188-5.982-5.418 0-3.144 2.41-5.076 6.682-5.315l4.922-.29V56.9c0-2-1.35-3.195-3.606-3.195-2.136 0-3.469 1.025-3.794 2.631h-3.486c.205-3.247 2.974-5.64 7.417-5.64 4.358 0 7.144 2.308 7.144 5.914V69h-3.538v-2.957h-.085c-1.043 2-3.316 3.265-5.674 3.265zm23.63 0c-4.546 0-7.554-3.623-7.554-9.297s3.008-9.28 7.52-9.28c2.58 0 4.63 1.299 5.64 3.281h.068V44.34h3.708V69h-3.589v-3.06h-.068c-1.06 2.052-3.11 3.368-5.725 3.368zm.974-15.467c-2.923 0-4.751 2.393-4.751 6.17 0 3.794 1.828 6.17 4.75 6.17 2.838 0 4.735-2.41 4.735-6.17 0-3.726-1.897-6.17-4.734-6.17zm35.023 15.5c-5.144 0-8.527-3.537-8.527-9.33 0-5.777 3.4-9.314 8.527-9.314 5.127 0 8.528 3.537 8.528 9.314 0 5.793-3.384 9.33-8.528 9.33zm0-3.041c2.906 0 4.768-2.29 4.768-6.29 0-3.981-1.88-6.271-4.768-6.271s-4.768 2.29-4.768 6.272c0 3.999 1.88 6.289 4.768 6.289zm15.393 2.7V51.021h3.52v3.008h.086c.974-2.05 2.888-3.315 5.657-3.315 3.965 0 6.238 2.53 6.238 6.648V69h-3.709V58.08c0-2.7-1.265-4.187-3.828-4.187-2.598 0-4.273 1.845-4.273 4.63V69h-3.691zm35.246-22.234h3.708v4.255h3.418v2.923h-3.418v9.912c0 1.555.684 2.256 2.188 2.256.376 0 .974-.034 1.213-.086v2.923c-.41.102-1.23.17-2.05.17-3.64 0-5.06-1.384-5.06-4.853V53.944h-2.614V51.02h2.615v-4.255zM433.532 69V44.34h3.657v9.69h.085c.992-2.103 2.957-3.316 5.691-3.316 3.948 0 6.306 2.632 6.306 6.7V69h-3.708V58.13c0-2.648-1.333-4.237-3.93-4.237-2.735 0-4.41 1.88-4.41 4.716V69h-3.691zm30.824-15.33c-2.58 0-4.392 1.966-4.58 4.683h8.99c-.086-2.751-1.829-4.683-4.41-4.683zm4.393 10.05h3.503c-.513 3.28-3.623 5.622-7.742 5.622-5.28 0-8.476-3.572-8.476-9.246 0-5.64 3.247-9.4 8.322-9.4 4.99 0 8.101 3.521 8.101 8.973v1.265h-12.698v.222c0 3.127 1.88 5.195 4.837 5.195 2.102 0 3.657-1.06 4.153-2.632zM198.294 141l-4.834-14.282h-20.14L168.485 141h-8.533l19.08-52.844h8.862L206.974 141h-8.68zM183.28 96.945l-7.874 23.181h15.967L183.5 96.945h-.22zm48.633 4.907c9.777 0 16.223 7.69 16.223 19.885s-6.409 19.922-16.077 19.922c-5.53 0-9.924-2.71-12.121-6.994h-.184v19.08h-7.91v-51.27h7.654v6.628h.147c2.27-4.431 6.701-7.25 12.268-7.25zm-2.088 33.106c6.262 0 10.18-5.127 10.18-13.22 0-8.057-3.918-13.22-10.18-13.22-6.042 0-10.107 5.273-10.107 13.22 0 8.02 4.028 13.22 10.107 13.22zm44.458-33.106c9.778 0 16.223 7.69 16.223 19.885s-6.408 19.922-16.076 19.922c-5.53 0-9.925-2.71-12.122-6.994h-.183v19.08h-7.91v-51.27h7.654v6.628h.146c2.27-4.431 6.702-7.25 12.268-7.25zm-2.087 33.106c6.262 0 10.18-5.127 10.18-13.22 0-8.057-3.918-13.22-10.18-13.22-6.043 0-10.108 5.273-10.108 13.22 0 8.02 4.029 13.22 10.108 13.22zm38.196-8.68h8.093c.586 5.237 5.676 8.68 12.634 8.68 6.665 0 11.463-3.443 11.463-8.167 0-4.102-2.894-6.555-9.742-8.24l-6.848-1.648c-9.704-2.343-14.209-6.884-14.209-14.245 0-9.119 7.947-15.381 19.226-15.381 11.17 0 18.824 6.262 19.08 15.38h-7.984c-.476-5.273-4.834-8.459-11.206-8.459s-10.73 3.223-10.73 7.91c0 3.736 2.784 5.933 9.595 7.618l5.823 1.428c10.84 2.563 15.344 6.921 15.344 14.648 0 9.888-7.873 16.077-20.398 16.077-11.719 0-19.629-6.043-20.141-15.6zm49.255-32.922h7.947v9.119h7.324v6.262h-7.324v21.24c0 3.333 1.465 4.834 4.687 4.834.806 0 2.088-.073 2.6-.183v6.262c-.879.22-2.636.366-4.394.366-7.8 0-10.84-2.966-10.84-10.4v-22.12h-5.603v-6.261h5.603v-9.119zm38.306 48.376c-11.023 0-18.274-7.58-18.274-19.995 0-12.378 7.287-19.958 18.274-19.958 10.986 0 18.274 7.58 18.274 19.958 0 12.415-7.251 19.995-18.274 19.995zm0-6.518c6.225 0 10.217-4.907 10.217-13.477 0-8.532-4.028-13.44-10.217-13.44-6.19 0-10.218 4.908-10.218 13.44 0 8.57 4.029 13.477 10.218 13.477zm24.39 5.786v-38.525h7.543v6.555h.183c1.282-4.505 4.724-7.178 9.265-7.178 1.136 0 2.124.183 2.71.293v7.36c-.622-.255-2.014-.439-3.552-.439-5.09 0-8.24 3.406-8.24 8.863V141h-7.91zm40.722-32.85c-5.53 0-9.412 4.212-9.815 10.035h19.263c-.183-5.896-3.918-10.034-9.448-10.034zm9.412 21.534h7.507c-1.099 7.031-7.764 12.048-16.59 12.048-11.315 0-18.164-7.653-18.164-19.812 0-12.085 6.958-20.141 17.835-20.141 10.693 0 17.358 7.544 17.358 19.226v2.71h-27.21v.476c0 6.702 4.03 11.133 10.365 11.133 4.504 0 7.837-2.27 8.899-5.64z" fill="#FFF"/></g></svg>