<?xml version="1.0" encoding="UTF-8"?>
<svg width="90px" height="51px" viewBox="0 0 90 51" version="1.1" xmlns="http://www.w3.org/2000/svg" xmlns:xlink="http://www.w3.org/1999/xlink">
    <!-- Generator: Sketch 49.3 (51167) - http://www.bohemiancoding.com/sketch -->
    <title>Logo</title>
    <desc>Created with Sketch.</desc>
    <defs>
        <path d="M0.633349269,10.9042497 C-1.5668293,18.7075052 3.30596457,26.7283906 11.5174986,28.8192476 C16.1077981,29.988041 20.7691114,29.0560711 24.3723974,26.6438771 C25.4599227,25.9157611 26.1015439,24.690161 26.1015439,23.3888703 L26.1015439,16.8078096 C26.1015439,14.7822725 24.4574578,13.1384391 22.420689,13.1150663 L17.0520472,13.1170785 C16.0561375,13.113828 15.1432593,13.7804938 14.8734069,14.7968224 C14.8621696,14.8400079 14.8517126,14.8831933 14.8428164,14.9265336 C14.5609463,16.3015027 15.6721949,17.5746223 17.08732,17.5767893 L17.5443054,17.5775632 C17.7150506,17.577718 17.8538006,17.7153232 17.8538006,17.8846598 L17.8538006,20.3525769 C17.8538006,20.765857 17.5699016,21.1302246 17.1641085,21.2238705 C16.0506749,21.480971 14.8554584,21.4845311 13.6708549,21.1826973 C9.8972919,20.221937 7.6579387,16.5361591 8.66898763,12.9503734 C9.68034871,9.36443286 13.5586375,7.23642706 17.3320444,8.19734211 C17.4848411,8.23619354 17.6340481,8.28108164 17.7815382,8.32891069 L17.7816943,8.32860112 C17.8935996,8.37008392 18.0078459,8.40769706 18.1253698,8.43927352 C20.2289384,9.00795939 22.3911909,7.74861583 22.954775,5.62633713 C23.5185152,3.50390365 22.2716381,1.32048425 20.1680695,0.75195317 C20.1632312,0.750560091 20.1580807,0.749476585 20.1530863,0.748238293 C19.9330217,0.681834853 19.7107719,0.618372358 19.4852447,0.561101326 C18.1512781,0.221344799 16.8101322,0.0589736842 15.491617,0.0589736842 C8.69489595,0.0585093245 2.47596175,4.36869623 0.633349269,10.9042497 Z" id="path-1"></path>
        <path d="M24.0496255,0.314506199 C22.0856629,0.843525716 20.6286455,2.3242549 20.0377048,4.13061778 L17.6931815,11.1707656 C17.5952649,11.4648714 17.1743488,11.4648714 17.0765886,11.1707656 L14.7325346,4.13061778 C14.141594,2.3242549 12.6844201,0.843525716 10.7204575,0.314506199 C8.01257927,-0.414808176 5.23806767,0.907354247 4.03162907,3.33330206 C3.78996595,3.81889345 3.63308044,4.34080374 3.53469462,4.87291422 L0.184258353,23.045036 C-0.478320919,25.5306396 0.989332837,28.0854808 3.46227389,28.7515849 C5.93505852,29.4175343 8.47697914,27.9425235 9.139402,25.4570745 L10.1301426,19.7557803 C10.1877038,19.4245828 10.657109,19.3929004 10.7595616,19.713434 L12.5814982,25.4056098 C13.2605012,27.4271042 15.1647127,28.8920694 17.403655,28.9044333 C18.2526825,28.9092243 19.0554107,28.7005838 19.7610045,28.3302856 C20.918954,27.72291 21.7656352,26.6625528 22.1637146,25.428483 L24.0094265,19.7066339 C24.1126612,19.3864094 24.5811279,19.4185555 24.6385327,19.7495983 L25.630681,25.4570745 C26.2932603,27.9425235 28.8348681,29.4175343 31.3078091,28.7515849 C33.7807502,28.0854808 35.1415716,25.6021955 34.5855118,23.045036 L31.2350755,4.87291422 C31.1370026,4.34080374 30.980117,3.81889345 30.7384539,3.33330206 C29.755847,1.35786313 27.7340104,0.114520439 25.5546627,0.11436589 C25.0575718,0.11436589 24.5525037,0.179121712 24.0496255,0.314506199 Z" id="path-3"></path>
        <polygon id="path-5" points="1.55709343e-05 0.125925126 89.9701038 0.125925126 89.9701038 34.3700321 1.55709343e-05 34.3700321"></polygon>
        <path d="M61.6661938,8.53388837 C61.5241869,8.76421456 61.1730623,8.69796273 61.1247924,8.43186678 L60.8840657,7.11351765 C60.7391003,6.31911783 60.5025779,5.58459347 60.1802595,4.93000677 C58.8072145,2.1401206 55.9279931,0.337479959 52.8440138,0.337479959 C52.1254152,0.337479959 51.4068166,0.433902804 50.7081488,0.624104642 C48.0274567,1.35380785 45.9115225,3.38117594 45.0476471,6.04742313 L44.9922145,6.21554103 C44.9028374,6.4863026 44.519481,6.4863026 44.4302595,6.21554103 L44.3768512,6.05333292 C43.5121972,3.38350875 41.3954844,1.35380785 38.714481,0.624104642 C38.0159689,0.433902804 37.2972145,0.337479959 36.5781488,0.337479959 C33.4947924,0.337479959 30.6152595,2.1401206 29.2422145,4.93000677 C28.9200519,5.58459347 28.683218,6.31927335 28.538564,7.11351765 L27.5231834,12.6799152 C27.4831661,12.8995105 27.2156574,12.9878462 27.052474,12.8348138 C26.9858304,12.7722945 26.9546886,12.6816259 26.9668339,12.5911129 C27.0334775,12.1044885 27.0677336,11.6111768 27.0674221,11.1135105 C27.0649308,5.17930648 22.0820761,0.32472726 16.140519,0.32472726 L5.25783737,0.32472726 C2.35401384,0.32472726 0,2.67588948 0,5.57619535 L0,28.9141009 C0,31.808497 2.35775087,34.1643248 5.25550173,34.1657245 L18.6930623,34.1713233 C21.3194118,34.1713233 23.7989273,33.2168926 25.7342388,31.4724167 L25.959083,31.2570205 C26.0881661,31.1333816 26.2958824,31.1523551 26.4019204,31.2965228 C27.3277682,32.5553075 28.6561246,33.4884318 30.2136851,33.9123813 C30.8139446,34.0758335 31.4310208,34.1585706 32.0479412,34.1585706 C34.5221626,34.1585706 36.7618858,32.8470643 38.0223529,30.8033666 C38.1344637,30.6215629 38.3987024,30.6165862 38.5170415,30.7943464 C39.882301,32.8453536 42.1852422,34.1372642 44.7159862,34.1515721 L44.7533564,34.1517277 C45.9571453,34.1517277 47.1520588,33.8542165 48.2138408,33.291076 C49.3161073,32.7064736 50.2366609,31.8531314 50.9116609,30.8089653 C51.0281315,30.6285613 51.2947059,30.6333824 51.4077509,30.8156527 C52.6694637,32.8525076 54.9052941,34.1585706 57.3735986,34.1585706 C57.9914533,34.1585706 58.6086851,34.0758335 59.2086332,33.9123813 C61.501609,33.2882766 63.2003979,31.6207835 63.9541869,29.511767 C64.0256574,29.3117674 64.2814879,29.2548468 64.4348616,29.4019694 C66.6130796,31.4923234 69.3328547,33.0049179 72.3930104,33.7898309 C73.8945156,34.1747447 75.4377509,34.3700787 76.9794291,34.3700787 C80.6382872,34.3700787 84.1647924,33.2965192 87.1769896,31.2654186 C88.925917,30.0864161 89.9701038,28.1133247 89.9701038,25.9881341 L89.9701038,19.385191 C89.9701038,16.0512933 87.2394291,13.2878457 83.9014879,13.2442999 L83.8930796,13.2439888 L83.884827,13.2439888 C83.579481,13.2439888 83.4762457,12.8425899 83.7407958,12.6909572 C85.1895156,11.860321 86.3005017,10.4657667 86.7506574,8.75814925 C87.6492561,5.35162344 85.6396713,1.83312271 82.2702768,0.909174119 C82.0099308,0.830791677 81.773564,0.76438433 81.5484083,0.706530623 C80.0458131,0.321305804 78.5024221,0.126127303 76.9607439,0.126127303 C70.5811765,0.126127303 64.8091869,3.42612142 61.6661938,8.53388837 Z M61.1599827,13.1873793 L61.1641869,13.1724493 C63.0819031,6.3226948 69.5777855,1.53856647 76.9607439,1.53856647 C78.384083,1.53856647 79.8089792,1.71881498 81.1961938,2.07464638 C81.4070242,2.12876759 81.6306228,2.19175348 81.8796021,2.26702551 C81.8820934,2.26764759 81.8845848,2.26826968 81.8870761,2.26904728 C84.5194983,2.98568675 86.0857785,5.73467097 85.383218,8.39827431 C84.8064706,10.5859843 82.8429758,12.1138198 80.6088581,12.1138198 C80.3290484,12.1138198 80.0492388,12.0895586 79.7722318,12.0413471 L79.2923356,11.9327937 C79.1699481,11.8985791 79.0472491,11.8586103 78.9186332,11.8114875 C78.7760035,11.7652979 78.6570415,11.7306167 78.5455536,11.7018454 C78.0278201,11.5690307 77.4962284,11.5018458 76.9658824,11.5018458 C74.2319377,11.5018458 71.8307439,13.2576747 71.126782,15.7716671 C70.725519,17.2055681 70.9181315,18.7110087 71.6692734,20.0113174 C72.4688408,21.3948297 73.7920588,22.3830083 75.3950865,22.7943606 C75.9120415,22.9268643 76.4425433,22.9940492 76.971955,22.9940492 C77.2494291,22.9940492 77.5267474,22.9755423 77.8018858,22.9389949 C78.0916609,22.9005813 78.3070069,22.6514371 78.3070069,22.3595247 L78.3070069,21.6522165 C78.3070069,21.3812994 78.1220242,21.1403978 77.8568512,21.0836327 C77.1281315,20.9273344 76.4696367,20.5287348 75.9874048,19.9385337 C75.3746886,19.1887683 75.132872,18.2211184 75.3234602,17.2847282 C75.3360727,17.2228309 75.3503979,17.1607781 75.3670588,17.0984143 C75.7454325,15.6617139 77.0384429,14.6586053 78.5102076,14.6586053 L83.8849827,14.6567391 C86.4605709,14.686288 88.5557958,16.8033915 88.5557958,19.3758597 L88.5557958,25.9881341 C88.5557958,27.6433411 87.7445502,29.1784861 86.3856747,30.0948142 C83.6079758,31.9675947 80.3553633,32.9574841 76.9794291,32.9574841 C75.5564014,32.9574841 74.1316609,32.77708 72.7446021,32.4215597 C68.6780969,31.3786377 65.2716436,28.948471 63.0710035,25.5405455 C62.9909689,25.4169065 62.7989792,25.4931117 62.8252941,25.6382125 C63.4931315,28.7787979 61.7807958,31.7483105 58.8367993,32.5497087 C58.3581488,32.6800351 57.8659516,32.7461314 57.3740657,32.7461314 L57.3735986,32.7461314 C54.8327336,32.7461314 52.599083,31.0074098 51.9426125,28.5179896 L51.9315571,28.4752214 L51.506782,26.0058635 C51.4829585,25.8665169 51.2880104,25.8528311 51.2450346,25.987512 L50.4308304,28.5385184 C49.9412803,30.0733523 48.9181142,31.3179846 47.5503633,32.0436443 C46.6922491,32.4985424 45.7263841,32.739133 44.7577163,32.739133 L44.724083,32.739133 C42.115173,32.7243585 39.8027336,31.0318265 38.9706228,28.5270098 L38.1737024,26.0103736 C38.1308824,25.8753816 37.9359343,25.8886008 37.9121107,26.0281029 L37.4910727,28.4752214 L37.4798616,28.5179896 C36.823391,31.0072542 34.5898962,32.7459759 32.0487197,32.7461314 L32.0479412,32.7461314 C31.5563668,32.7461314 31.0643253,32.6800351 30.5858304,32.5497087 C28.6548789,32.0240487 27.2288927,30.5335381 26.6748789,28.7280981 C26.6224048,28.5559367 26.3949135,28.5249881 26.2954152,28.6750656 C25.9603287,29.1801969 25.5727682,29.6557792 25.1338235,30.0941921 C23.4135467,31.8125405 21.1263322,32.7588841 18.6930623,32.7588841 L5.25596886,32.7529743 C3.13769896,32.7520412 1.41430796,31.0299603 1.41430796,28.9141009 L1.41430796,5.57619535 C1.41430796,3.4559814 3.13520761,1.73732194 5.25783737,1.73732194 L16.1419204,1.73732194 C21.3461938,1.73732194 25.6495329,5.91367531 25.6529585,11.1113332 C25.6543599,12.9469443 25.1355363,14.697952 24.1463149,16.2169229 C24.1075433,16.2764873 24.1212457,16.3550253 24.1782353,16.397949 C25.6118512,17.4761742 26.6737889,18.9292042 27.2657958,20.57508 C27.3121972,20.7041622 27.5001384,20.687677 27.5248962,20.552685 L29.9299827,7.36654986 C30.0512803,6.70076567 30.2466955,6.09065789 30.5115571,5.55317829 C31.6482353,3.2427625 34.0298097,1.75007464 36.5781488,1.75007464 C37.1715571,1.75007464 37.7651211,1.82954573 38.3424913,1.9869327 C40.5619723,2.59097517 42.3152595,4.27464246 43.0319896,6.49050166 L44.2898097,10.3085353 C44.4232526,10.7147554 44.99891,10.7147554 45.1326644,10.3085353 L46.3920415,6.48521395 C47.107526,4.27448694 48.8606574,2.59097517 51.079827,1.9869327 C51.6573529,1.82954573 52.2512284,1.75007464 52.8440138,1.75007464 C55.3926644,1.75007464 57.774083,3.2427625 58.910917,5.55317829 C59.1754671,6.09065789 59.3711938,6.70076567 59.4926471,7.36654986 L60.5491349,13.1592301 C60.5801211,13.3290587 60.719481,13.4164613 60.8586851,13.4164613 C60.9877682,13.4164613 61.1166955,13.3415003 61.1599827,13.1873793 Z M74.2897059,20.9705692 C73.4428028,20.4685483 72.8095329,19.5903228 72.5118166,18.6052546 C72.3652941,18.1111652 72.2938235,17.5876825 72.319827,17.065755 C72.3433391,16.5436719 72.4593426,16.0251659 72.6488408,15.5388526 C73.022699,14.5660705 73.7202768,13.7192602 74.5939619,13.1791367 C75.4653114,12.6394798 76.5032699,12.4007555 77.4675779,12.5393245 C77.691955,12.5715173 77.8475087,12.779604 77.8152768,13.0037093 C77.7914533,13.1704275 77.6703114,13.2991987 77.5174048,13.3411893 L77.5001211,13.3458549 C76.7123875,13.560629 76.0236851,13.9113283 75.4720069,14.3960863 C74.925,14.8817775 74.5120588,15.4841093 74.2741349,16.1523818 C74.1534602,16.4841075 74.0777855,16.829208 74.0399481,17.1805293 C74.0077163,17.5323171 74.0120761,17.8906369 74.062526,18.2491121 C74.1109516,18.6077429 74.1997059,18.9673068 74.3309689,19.3226716 C74.461609,19.6792806 74.6369377,20.0274915 74.8460554,20.3848781 L74.8585121,20.4061845 C74.9738927,20.6035403 74.9075606,20.856728 74.7099654,20.9719689 C74.6442561,21.0100714 74.5726298,21.0282674 74.501782,21.0282674 C74.4273529,21.0282674 74.3538581,21.0080497 74.2897059,20.9705692 Z" id="path-7"></path>
        <path d="M2.90399357,0.101692913 C1.348863,0.101692913 0.0882014353,1.3609541 0.0882014353,2.91401198 L0.0882014353,26.1060236 C0.0882014353,27.6586179 1.34793457,28.9175699 2.9029104,28.9183427 L16.2519655,28.924061 C20.6982463,28.9259156 24.3036734,25.326481 24.3036734,20.8856844 C24.3036734,18.0330281 22.815545,15.5285697 20.5725979,14.1019325 C20.3558081,13.9640752 20.3031967,13.6744513 20.459174,13.4706019 C21.5315177,12.0702379 22.1684249,10.3202852 22.1684249,8.42150235 C22.1684249,3.82662087 18.4388969,0.101692913 13.8386505,0.101692913 L2.90399357,0.101692913 Z M9.41000997,10.2059193 L9.41000997,7.6377869 C9.41000997,7.34692662 9.64691593,7.11046741 9.9381354,7.11046741 L11.8251819,7.11046741 C12.7776027,7.11046741 13.591377,7.82958159 13.6781857,8.74790878 C13.7258455,9.2562188 13.5567153,9.76391062 13.2136582,10.1402362 C12.8702915,10.51718 12.3814699,10.7333934 11.8723774,10.7333934 L9.9381354,10.7333934 C9.64691593,10.7333934 9.41000997,10.4966251 9.41000997,10.2059193 Z M9.41000997,21.2674192 L9.41000997,18.6992867 C9.41000997,18.408581 9.64691593,18.1719672 9.9381354,18.1719672 L11.8251819,18.1719672 C12.7776027,18.1719672 13.591377,18.8910814 13.6781857,19.8092541 C13.7258455,20.3180277 13.5567153,20.8254105 13.2136582,21.2017361 C12.8702915,21.5786798 12.3814699,21.7948932 11.8723774,21.7948932 L9.9381354,21.7948932 C9.64691593,21.7948932 9.41000997,21.5582794 9.41000997,21.2674192 Z" id="path-9"></path>
        <polygon id="path-11" points="0.0914618673 0.132721287 6.13567559 0.132721287 6.13567559 8.73373269 0.0914618673 8.73373269"></polygon>
    </defs>
    <g id="Symbols" stroke="none" stroke-width="1" fill="none" fill-rule="evenodd">
        <g id="Logo/Banco-BMG">
            <g id="Logo">
                <path d="M62.1792457,29.3250221 C59.9899485,37.1675262 64.8384544,45.2287549 73.0086419,47.3301284 C77.5759152,48.5048006 82.2140014,47.5682986 85.7992124,45.1438163 C86.8811271,44.4118824 87.519685,43.1802734 87.519685,41.872282 L87.519685,35.2582756 C87.519685,33.2225505 85.8838462,31.570449 83.8572943,31.5469586 L78.5154278,31.548981 C77.5245138,31.5457141 76.6163701,32.2157331 76.3477161,33.2371736 C76.3365351,33.2805763 76.3262859,33.3239789 76.3174343,33.3675372 C76.0368229,34.7494221 77.1424971,36.0289451 78.5505236,36.0311231 L79.0053719,36.0319009 C79.1752607,36.0320564 79.3131594,36.1703538 79.3131594,36.3406976 L79.3131594,38.8208722 C79.3131594,39.2362311 79.0308397,39.6022758 78.626927,39.6965483 C77.5190786,39.9549419 76.3300129,39.9585199 75.1511964,39.655168 C71.3965626,38.6895753 69.1685979,34.9852588 70.1745751,31.3814374 C71.1807077,27.7774604 75.0395419,25.6389067 78.7941757,26.6044994 C78.9462059,26.6435463 79.0946645,26.6888157 79.2414148,26.7367298 L79.2415701,26.7364186 C79.3529139,26.7781101 79.4664319,26.8157568 79.5833663,26.8476477 C81.6765381,27.4191939 83.8277889,26.1533606 84.3887012,24.0205629 C84.9496135,21.8876096 83.7089911,19.6930525 81.6159745,19.1216619 C81.6110052,19.1202618 81.6060359,19.1191728 81.6009113,19.1179283 C81.3819505,19.0511909 81.1608156,18.9874092 80.9365749,18.9298501 C79.6091446,18.5883847 78.2747262,18.4251969 76.9628251,18.4251969 C70.2001982,18.4247302 64.0126151,22.7565963 62.1792457,29.3250221" id="Fill-1" fill="#FEFEFE"></path>
                <g id="Group-5" transform="translate(61.653543, 18.425197)">
                    <mask id="mask-2" fill="white">
                        <use xlink:href="#path-1"></use>
                    </mask>
                    <g id="Clip-4"></g>
                    <polygon id="Fill-3" fill="#FEFEFE" mask="url(#mask-2)" points="-1.5668293 29.988041 26.1015439 29.988041 26.1015439 0.0585093245 -1.5668293 0.0585093245"></polygon>
                </g>
                <path d="M51.0904835,18.9814606 C49.1442879,19.5152188 47.7004514,21.0092115 47.1148567,22.8317548 L44.7915431,29.9349644 C44.6945124,30.2317046 44.277404,30.2317046 44.1805283,29.9349644 L41.8578347,22.8317548 C41.272085,21.0092115 39.8280935,19.5152188 37.881898,18.9814606 C35.1985165,18.2456134 32.4491046,19.579775 31.25358,22.0272972 C31.0142581,22.5172382 30.8586369,23.0438235 30.7612961,23.5807003 L27.4411696,41.9155979 C26.7844293,44.4234661 28.2388059,47.0011922 30.6893755,47.6732628 C33.1397901,48.3453334 35.6587152,46.8569543 36.3153004,44.349242 L37.2970783,38.5970348 C37.3541187,38.2627147 37.8191225,38.2307485 37.9206483,38.5543092 L39.7262577,44.2973164 C40.3989631,46.3370741 42.2859481,47.8150058 44.5046359,47.8274804 C45.3458276,47.8323143 46.1414489,47.621805 46.8406595,47.2481898 C47.9879787,46.6353737 48.8271554,45.5655183 49.2216335,44.3203945 L51.0506481,38.5472922 C51.152949,38.2241993 51.6171777,38.2566333 51.6742181,38.5906415 L52.657081,44.349242 C53.3138212,46.8569543 55.8325913,48.3453334 58.2830059,47.6732628 C60.7335755,47.0011922 62.0822413,44.495663 61.5310569,41.9155979 L58.2109303,23.5807003 C58.1138996,23.0438235 57.9584333,22.5172382 57.7189564,22.0272972 C56.7450836,20.0343193 54.7415376,18.7796835 52.5819054,18.7795276 C52.0893114,18.7795276 51.5888124,18.8448634 51.0904835,18.9814606" id="Fill-6" fill="#FEFEFE"></path>
                <g id="Group-10" transform="translate(27.283465, 18.425197)">
                    <mask id="mask-4" fill="white">
                        <use xlink:href="#path-3"></use>
                    </mask>
                    <g id="Clip-9"></g>
                    <polygon id="Fill-8" fill="#FEFEFE" mask="url(#mask-4)" points="-0.478320919 29.4175343 35.141728 29.4175343 35.141728 -0.414808176 -0.478320919 -0.414808176"></polygon>
                </g>
                <g id="Group-13" transform="translate(0.000000, 15.944882)">
                    <mask id="mask-6" fill="white">
                        <use xlink:href="#path-5"></use>
                    </mask>
                    <g id="Clip-12"></g>
                    <path d="M61.6662093,8.53384172 C61.5243581,8.7641679 61.1730779,8.69791608 61.1246522,8.43182013 L60.884237,7.113471 C60.7391159,6.31907117 60.5024377,5.58454682 60.1802751,4.92996011 C58.8073858,2.14007395 55.9278529,0.337433302 52.8441851,0.337433302 C52.1255865,0.337433302 51.4068322,0.433856148 50.7081644,0.624057986 C48.0274723,1.35391672 45.9115381,3.38112928 45.0475069,6.04737647 L44.9922301,6.21549437 C44.9028529,6.48625594 44.5194965,6.48625594 44.4304308,6.21549437 L44.3768668,6.05328626 C43.5120571,3.38346209 41.3955,1.35391672 38.7144965,0.624057986 C38.0159844,0.433856148 37.2970744,0.337433302 36.5783201,0.337433302 C33.494808,0.337433302 30.6152751,2.14007395 29.2423858,4.92996011 C28.9200675,5.58454682 28.6832336,6.31922669 28.5384239,7.113471 L27.523199,12.6798685 C27.4831817,12.8994638 27.2155173,12.9877996 27.0524896,12.8347672 C26.9856903,12.7724034 26.9545484,12.6817348 26.9668495,12.5910662 C27.0333374,12.1044419 27.0677491,11.6111302 27.0674377,11.1134639 C27.0649464,5.17925982 22.081936,0.324680604 16.1403789,0.324680604 L5.25785294,0.324680604 C2.35402941,0.324680604 1.55709343e-05,2.67584282 1.55709343e-05,5.5761487 L1.55709343e-05,28.9140542 C1.55709343e-05,31.8084503 2.35761073,34.1644337 5.2555173,34.1656779 L18.6930779,34.1714321 C21.3194273,34.1714321 23.7989429,33.216846 25.7342543,31.4723701 L25.9590986,31.2569739 C26.0881817,31.1331794 26.2958979,31.1523084 26.401936,31.2964761 C27.3279394,32.5552608 28.6561401,33.4883851 30.2137007,33.9124901 C30.8138045,34.0757869 31.4310363,34.1586794 32.0479567,34.1586794 C34.5221782,34.1586794 36.7620571,32.8470177 38.0223685,30.8033199 C38.1344792,30.6215162 38.398718,30.6165395 38.5170571,30.7942997 C39.8823166,32.845307 42.1854135,34.1373731 44.7160017,34.151681 L44.753372,34.1518365 C45.9571609,34.1518365 47.1520744,33.8541699 48.2137007,33.2910293 C49.3161228,32.706427 50.2366765,31.8530848 50.9118322,30.8089187 C51.0283028,30.6285146 51.2947215,30.6333358 51.4077664,30.8156061 C52.6694792,32.8524609 54.9053097,34.1586794 57.3737699,34.1586794 C57.9913131,34.1586794 58.6087007,34.0757869 59.2086488,33.9124901 C61.5014689,33.28823 63.2004135,31.6207368 63.9540467,29.5118759 C64.0255173,29.3118762 64.2815035,29.2548001 64.4348772,29.4019227 C66.6132509,31.4922767 69.3327145,33.0050267 72.393026,33.7897843 C73.8945311,34.1746981 75.4377664,34.3700321 76.9794446,34.3700321 C80.6383028,34.3700321 84.1646522,33.2966281 87.1770052,31.265372 C88.9259325,30.0863694 89.9701194,28.1132781 89.9701194,25.9879319 L89.9701194,19.3851443 C89.9701194,16.0512467 87.2392889,13.287799 83.9015035,13.2442532 L83.8930952,13.2440977 L83.8846869,13.2440977 C83.5794965,13.2440977 83.4762612,12.8425432 83.7409671,12.690755 C85.1895311,11.8604299 86.3005173,10.4658756 86.7508287,8.75810259 C87.6492716,5.35157678 85.6396869,1.83307605 82.2702924,0.909127463 C82.0099464,0.830745021 81.7735796,0.764337674 81.5484239,0.706483967 C80.0458287,0.321259148 78.5024377,0.125925126 76.9609152,0.125925126 C70.581192,0.125925126 64.8092024,3.42607477 61.6662093,8.53384172 M61.1598426,13.1873327 L61.1642024,13.1724027 C63.0819187,6.32264815 69.577801,1.53867533 76.9609152,1.53867533 C78.3839429,1.53867533 79.8089948,1.71876832 81.1962093,2.07459973 C81.4068841,2.12872094 81.6306384,2.19170683 81.8796176,2.26697885 C81.882109,2.26760094 81.8846003,2.26822302 81.8870917,2.26900062 C84.5196696,2.98564009 86.0857941,5.73462431 85.3832336,8.39822765 C84.8063304,10.5859376 82.8429913,12.1139287 80.6088737,12.1139287 C80.3289083,12.1139287 80.0492543,12.0895119 79.7722474,12.0413005 L79.2921955,11.932747 C79.1699637,11.8985325 79.0472647,11.8587192 78.9186488,11.8114409 C78.776019,11.7652512 78.6570571,11.7305701 78.5455692,11.7017987 C78.0278356,11.5691396 77.4962439,11.5017991 76.9658979,11.5017991 C74.2319533,11.5017991 71.8307595,13.257628 71.1267976,15.7717759 C70.7255346,17.205677 70.9181471,18.710962 71.6692889,20.0112707 C72.4688564,21.394783 73.7919187,22.3831172 75.3952578,22.794314 C75.9119014,22.9268176 76.4425588,22.9940026 76.9719706,22.9940026 C77.2494446,22.9940026 77.526763,22.9754956 77.8019014,22.9389482 C78.0916765,22.9006902 78.3070225,22.6513904 78.3070225,22.3594781 L78.3070225,21.6523253 C78.3070225,21.3812527 78.1220398,21.1405067 77.8567111,21.0835861 C77.1281471,20.9272878 76.4694965,20.5286882 75.9874204,19.938487 C75.3747042,19.1888772 75.1327318,18.2212273 75.3234758,17.2846815 C75.3360882,17.2227842 75.3504135,17.160887 75.3669187,17.0983677 C75.7456038,15.6616673 77.0384585,14.6585586 78.5102232,14.6585586 L83.8849983,14.6566924 C86.4605865,14.6863969 88.5558114,16.8033449 88.5558114,19.3758131 L88.5558114,25.9879319 C88.5558114,27.6432945 87.7445657,29.1784395 86.3856903,30.0949231 C83.6079913,31.9677035 80.3553789,32.9575929 76.9794446,32.9575929 C75.5562612,32.9575929 74.1316765,32.7771889 72.7444619,32.4216685 C68.6779567,31.3787466 65.2716592,28.9484243 63.0708633,25.5406543 C62.9909844,25.4168599 62.7988391,25.4932205 62.8253097,25.6380103 C63.4929913,28.7787512 61.7806557,31.7484193 58.8368149,32.5496621 C58.3581644,32.6799884 57.8659671,32.7462403 57.3740813,32.7462403 L57.3737699,32.7462403 C54.8327491,32.7462403 52.5992543,31.0073631 51.942628,28.517943 L51.931417,28.4753303 L51.5067976,26.0058168 C51.482974,25.8664702 51.288026,25.8527844 51.2450502,25.9876209 L50.430846,28.5386272 C49.9412958,30.0733057 48.9181298,31.317938 47.5503789,32.0435977 C46.6922647,32.4986513 45.7265554,32.7392418 44.7577318,32.7392418 L44.7239429,32.7392418 C42.1150329,32.7243118 39.8029048,31.0317799 38.9706384,28.5269632 L38.173718,26.0103269 C38.1308979,25.8753349 37.9359498,25.8887097 37.9119706,26.0280563 L37.4910882,28.4753303 L37.4798772,28.517943 C36.8234066,31.0072076 34.5899118,32.7460847 32.0487353,32.7462403 L32.0479567,32.7462403 C31.5563824,32.7462403 31.0643408,32.6799884 30.585846,32.5496621 C28.6548945,32.024002 27.2289083,30.5334915 26.6748945,28.728207 C26.6222647,28.55589 26.3949291,28.5249414 26.2954308,28.6750189 C25.9603443,29.1801502 25.5727837,29.6557326 25.1338391,30.0941455 C23.4135623,31.8126494 21.1263478,32.758993 18.6930779,32.758993 L5.25614014,32.7529277 C3.13771453,32.7521501 1.41432353,31.0299136 1.41432353,28.9140542 L1.41432353,5.5761487 C1.41432353,3.45609027 3.13522318,1.73727529 5.25785294,1.73727529 L16.1420917,1.73727529 C21.3462093,1.73727529 25.6495484,5.91362866 25.6531298,11.1112866 C25.6543754,12.9468976 25.1355519,14.6979054 24.1463304,16.2168762 C24.1075588,16.2764407 24.1212612,16.3549786 24.1782509,16.3979024 C25.6118668,17.4761275 26.6738045,18.9291576 27.2656557,20.5750333 C27.3120571,20.704271 27.500154,20.6876303 27.5247561,20.5526383 L29.9299983,7.36650321 C30.0512958,6.70071901 30.2468668,6.09061123 30.5115727,5.55313163 C31.6484066,3.24287136 34.0298253,1.75002799 36.5783201,1.75002799 C37.1715727,1.75002799 37.7651367,1.82965459 38.3425069,1.98688604 C40.5619879,2.59108403 42.3152751,4.27459581 43.0320052,6.49029948 L44.2896696,10.3084886 C44.4234239,10.7147088 44.9989256,10.7147088 45.1326799,10.3084886 L46.3920571,6.4851673 C47.1075415,4.27444029 48.860673,2.59108403 51.0799983,1.98688604 C51.6575242,1.82965459 52.2510882,1.75002799 52.8441851,1.75002799 C55.3926799,1.75002799 57.7742543,3.24287136 58.9110882,5.55313163 C59.1756384,6.09061123 59.3712093,6.70071901 59.4926626,7.36650321 L60.5491505,13.1591834 C60.5801367,13.329012 60.7194965,13.4165702 60.8587007,13.4165702 C60.9879394,13.4165702 61.1168668,13.3414537 61.1598426,13.1873327 M74.2897215,20.970678 C73.4428183,20.4685016 72.8095484,19.5904317 72.5118322,18.6053634 C72.3654654,18.1111186 72.2938391,17.5877914 72.3198426,17.0657083 C72.3433547,16.5436253 72.4593581,16.0252747 72.6488564,15.5388059 C73.0228702,14.5660238 73.7202924,13.7192135 74.5939775,13.1790901 C75.4651713,12.6394332 76.5032855,12.4007089 77.4674377,12.5392778 C77.6919706,12.5714706 77.8476799,12.7797128 77.8154481,13.0036627 C77.7914689,13.1703809 77.670327,13.2993076 77.5174204,13.3411426 L77.499981,13.3458083 C76.7125588,13.5605824 76.0237007,13.9112816 75.4720225,14.3960397 C74.9250156,14.8817309 74.5120744,15.4840626 74.2743062,16.1523351 C74.1533201,16.4840608 74.077801,16.8291613 74.0401194,17.1806381 C74.0077318,17.5322705 74.011936,17.8905902 74.0623858,18.249221 C74.1109671,18.6076962 74.1995657,18.9672601 74.3309844,19.322625 C74.4616246,19.679234 74.6369533,20.0274449 74.8462266,20.3848315 L74.8585277,20.4062934 C74.9739083,20.6034936 74.9074204,20.8566814 74.7101367,20.9720777 C74.6444273,21.0101803 74.5726453,21.0282207 74.5017976,21.0282207 C74.4273685,21.0282207 74.3538737,21.0081585 74.2897215,20.970678" id="Fill-11" fill="#FEFEFE" mask="url(#mask-6)"></path>
                </g>
                <g id="Group-16" transform="translate(0.000000, 15.944882)">
                    <mask id="mask-8" fill="white">
                        <use xlink:href="#path-7"></use>
                    </mask>
                    <g id="Clip-15"></g>
                    <polygon id="Fill-14" fill="#FEFEFE" mask="url(#mask-8)" points="-0.000155709343 34.3700787 89.9701038 34.3700787 89.9701038 0.126127303 -0.000155709343 0.126127303"></polygon>
                </g>
                <path d="M5.32324084,18.7795276 C3.75296838,18.7795276 2.48031496,20.0489577 2.48031496,21.6145569 L2.48031496,44.9938511 C2.48031496,46.558983 3.75218723,47.8281015 5.321991,47.8288805 L18.7996813,47.8346449 C23.2888076,47.8365145 26.9291339,44.2080134 26.9291339,39.731356 C26.9291339,36.8556637 25.4265092,34.330981 23.1621047,32.8928233 C22.9430696,32.7538528 22.8899513,32.4617343 23.0474316,32.2563945 C24.1301087,30.8447222 24.7733096,29.0806381 24.7733096,27.166522 C24.7733096,22.5345354 21.0078428,18.7795276 16.3631109,18.7795276 L5.32324084,18.7795276 Z M11.8917948,28.9653487 L11.8917948,26.3764778 C11.8917948,26.0832687 12.1311399,25.8449 12.4251656,25.8449 L14.33024,25.8449 C15.2919948,25.8449 16.1134546,26.5698213 16.2010999,27.4954084 C16.2493751,28.007979 16.0786152,28.5199264 15.7322522,28.8991351 C15.3854206,29.2792787 14.8918885,29.4970822 14.3780465,29.4970822 L12.4251656,29.4970822 C12.1311399,29.4970822 11.8917948,29.2585577 11.8917948,28.9653487 Z M11.8917948,40.1161734 L11.8917948,37.5273026 C11.8917948,37.2342493 12.1311399,36.9957248 12.4251656,36.9957248 L14.33024,36.9957248 C15.2919948,36.9957248 16.1134546,37.720646 16.2010999,38.646389 C16.2493751,39.1592712 16.0786152,39.6707512 15.7322522,40.0499599 C15.3854206,40.4299476 14.8918885,40.647907 14.3780465,40.647907 L12.4251656,40.647907 C12.1311399,40.647907 11.8917948,40.4093825 11.8917948,40.1161734 Z" id="Fill-17" fill="#FEFEFE"></path>
                <g id="Group-21" transform="translate(2.480315, 18.425197)">
                    <mask id="mask-10" fill="white">
                        <use xlink:href="#path-9"></use>
                    </mask>
                    <g id="Clip-20"></g>
                    <polygon id="Fill-19" fill="#FEFEFE" mask="url(#mask-10)" points="0.0882014353 28.9259156 24.3036734 28.9259156 24.3036734 0.101692913 0.0882014353 0.101692913"></polygon>
                </g>
                <g id="Group-33" transform="translate(2.480315, 0.000000)">
                    <g id="Group-24">
                        <mask id="mask-12" fill="white">
                            <use xlink:href="#path-11"></use>
                        </mask>
                        <g id="Clip-23"></g>
                        <path d="M4.76452373,7.43966196 C5.10416828,7.12778985 5.27383532,6.71114581 5.27383532,6.18972984 C5.27383532,5.69045954 5.10416828,5.29214295 4.76452373,4.99478007 C4.42487919,4.69741719 3.98293768,4.54881211 3.43807829,4.54881211 L0.964633971,4.54881211 L0.964633971,7.90762286 L3.43807829,7.90762286 C3.98293768,7.90762286 4.42487919,7.75183953 4.76452373,7.43966196 M4.36154511,3.34286587 C4.64872171,3.0896416 4.7927757,2.7427946 4.7927757,2.30217214 C4.7927757,1.87651711 4.65089494,1.54616481 4.36713341,1.31111526 C4.08337188,1.07606571 3.71066322,0.958617296 3.24776558,0.958617296 L0.964633971,0.958617296 L0.964633971,3.72285501 L3.24776558,3.72285501 C3.70290169,3.72285501 4.0743685,3.59624287 4.36154511,3.34286587 M4.46244499,0.413528374 C4.82428751,0.600773826 5.11146412,0.859496335 5.32413003,1.18984863 C5.53710641,1.52035365 5.64312891,1.89102634 5.64312891,2.30217214 C5.64312891,2.69147774 5.53710641,3.04000475 5.32413003,3.34836411 C5.11146412,3.65672346 4.82599505,3.8954385 4.4680333,4.06420377 C4.98277795,4.20379786 5.38932688,4.45518938 5.68799055,4.81853109 C5.98634376,5.18202552 6.13567559,5.63898995 6.13567559,6.18972984 C6.13567559,6.68166916 6.0200288,7.12030614 5.78889044,7.50579351 C5.55728639,7.89128089 5.23844274,8.19230926 4.83189381,8.40887863 C4.42487919,8.625448 3.96027402,8.73373269 3.43807829,8.73373269 L0.583853318,8.73373269 C0.434366254,8.73373269 0.315304387,8.69509232 0.225891564,8.6179643 C0.13632351,8.540989 0.0914618673,8.43636981 0.0914618673,8.30425944 L0.0914618673,0.562133451 C0.0914618673,0.437354059 0.132287514,0.334720337 0.214404499,0.253774097 C0.296676715,0.173133315 0.401146907,0.132660195 0.527815073,0.132660195 L3.24776558,0.132660195 C3.69545062,0.132660195 4.10044724,0.226282922 4.46244499,0.413528374" id="Fill-22" fill="#FEFEFE" mask="url(#mask-12)"></path>
                    </g>
                    <path d="M10.971031,7.72049959 C11.3142459,7.52225767 11.5848128,7.2488732 11.7827318,6.90004073 C11.9803404,6.55136098 12.0793775,6.1605281 12.0793775,5.72723663 C12.0793775,5.29409788 11.9803404,4.90311227 11.7827318,4.5542798 C11.5848128,4.20560005 11.3142459,3.93038284 10.971031,3.7283227 C10.627661,3.52656802 10.2434652,3.42546158 9.81813341,3.42546158 C9.39280157,3.42546158 9.00689831,3.52656802 8.65964747,3.7283227 C8.31270709,3.93038284 8.04012216,4.20560005 7.84282407,4.5542798 C7.64474983,4.90311227 7.5461784,5.29409788 7.5461784,5.72723663 C7.5461784,6.1605281 7.64474983,6.55136098 7.84282407,6.90004073 C8.04012216,7.2488732 8.31270709,7.52225767 8.65964747,7.72049959 C9.00689831,7.91874152 9.39280157,8.01786248 9.81813341,8.01786248 C10.2434652,8.01786248 10.627661,7.91874152 10.971031,7.72049959 M11.4019512,3.05646891 C11.875715,3.3246606 12.2487341,3.69365327 12.521319,4.16329419 C12.7935935,4.63324056 12.9298859,5.1545038 12.9298859,5.72723663 L12.9298859,8.31522536 C12.9298859,8.43267377 12.8887498,8.53179473 12.8067881,8.61258824 C12.7246711,8.69338175 12.6202009,8.73370214 12.4935327,8.73370214 C12.3663989,8.73370214 12.2619287,8.69506177 12.1799669,8.61793375 C12.0978499,8.54095846 12.0567138,8.44015748 12.0567138,8.31522536 L12.0567138,7.65436804 C11.795616,8.00686601 11.463733,8.28406869 11.0605991,8.48582338 C10.6576205,8.68788352 10.213661,8.7886845 9.72856535,8.7886845 C9.16166322,8.7886845 8.64847087,8.65489411 8.18960922,8.38670242 C7.73059235,8.11881618 7.3685946,7.75180899 7.10392643,7.2855281 C6.83894781,6.81939995 6.70638088,6.29981673 6.70638088,5.72723663 C6.70638088,5.1545038 6.84251811,4.63324056 7.11494781,4.16329419 C7.38722227,3.69365327 7.76024139,3.3246606 8.23431564,3.05646891 C8.70823465,2.78858268 9.23601867,2.65463956 9.81813341,2.65463956 C10.4002481,2.65463956 10.9281874,2.78858268 11.4019512,3.05646891" id="Fill-25" fill="#FEFEFE"></path>
                    <path d="M18.2074313,2.97398011 C18.6290376,3.19421497 18.959213,3.51540354 19.1981129,3.93754582 C19.4368576,4.35984082 19.5560747,4.86460935 19.5560747,5.45185141 L19.5560747,8.31521009 C19.5560747,8.4326585 19.515249,8.53177946 19.4331321,8.61257297 C19.3508598,8.69336648 19.2502704,8.73368687 19.1307429,8.73368687 C19.0040747,8.73368687 18.8994493,8.69336648 18.8176427,8.61257297 C18.7352153,8.53177946 18.6945449,8.4326585 18.6945449,8.31521009 L18.6945449,5.45185141 C18.6945449,4.7984778 18.50951,4.30104025 18.1402164,3.95969149 C17.7707676,3.61818999 17.2875348,3.44759198 16.6906731,3.44759198 C16.3249498,3.44759198 15.9947744,3.51738902 15.7003019,3.65683037 C15.4052085,3.79627172 15.1720522,3.98901541 15.0006776,4.2349087 C14.8286821,4.48095472 14.7433053,4.75449192 14.7433053,5.05536757 L14.7433053,8.31521009 C14.7433053,8.44014221 14.7040319,8.54094318 14.6257957,8.61807121 C14.5474043,8.6950465 14.4446416,8.73368687 14.317663,8.73368687 C14.1906844,8.73368687 14.0863694,8.6950465 14.0045629,8.61807121 C13.9222907,8.54094318 13.8813098,8.44014221 13.8813098,8.31521009 L13.8813098,3.13923262 C13.8813098,3.01445323 13.9222907,2.91166678 14.0045629,2.83087327 C14.0863694,2.75007976 14.1906844,2.70975937 14.317663,2.70975937 C14.4446416,2.70975937 14.5474043,2.75007976 14.6257957,2.83087327 C14.7040319,2.91166678 14.7433053,3.01445323 14.7433053,3.13923262 L14.7433053,3.5135708 C14.989501,3.24201907 15.287699,3.02896246 15.6385201,2.87485915 C15.9893413,2.72060311 16.3698115,2.64362782 16.7803964,2.64362782 C17.3101984,2.64362782 17.7856697,2.75374525 18.2074313,2.97398011" id="Fill-27" fill="#FEFEFE"></path>
                    <path d="M25.6227348,3.71182799 C25.6824985,3.77795954 25.7121476,3.85493484 25.7121476,3.94305933 C25.7121476,4.06066047 25.6488135,4.16344692 25.5221453,4.25141868 C25.4547753,4.29555729 25.3838349,4.31755023 25.309169,4.31755023 C25.1975582,4.31755023 25.089052,4.26241515 24.9848922,4.15229772 C24.7607393,3.91006992 24.5145435,3.7283227 24.2459946,3.6072088 C23.9771352,3.4860949 23.6789372,3.42546158 23.3503141,3.42546158 C22.9401948,3.42546158 22.5741611,3.52290253 22.2534547,3.71732623 C21.9327483,3.91205539 21.6843793,4.18543986 21.509124,4.53778509 C21.3337134,4.89013033 21.2463186,5.2867669 21.2463186,5.72723663 C21.2463186,6.1605281 21.3393017,6.55136098 21.5258889,6.90004073 C21.7126313,7.2488732 21.9735739,7.52225767 22.3093377,7.72049959 C22.6452567,7.91874152 23.0296076,8.01786248 23.4625458,8.01786248 C24.0594074,8.01786248 24.540467,7.86009367 24.9065008,7.54425061 C25.0033647,7.46360983 25.1039541,7.42313671 25.2084243,7.42313671 C25.2979924,7.42313671 25.3802646,7.45261336 25.4547753,7.5112612 C25.5594007,7.59938569 25.6117134,7.69850665 25.6117134,7.80862408 C25.6117134,7.90407955 25.5743028,7.98487307 25.4994817,8.05085189 C24.9622286,8.5427912 24.2830947,8.7886845 23.4625458,8.7886845 C22.880431,8.7886845 22.3580801,8.65489411 21.8951825,8.38670242 C21.4327505,8.11881618 21.0687348,7.75180899 20.8039114,7.2855281 C20.5389327,6.81939995 20.406521,6.29981673 20.406521,5.72723663 C20.406521,5.13984184 20.5336549,4.61308037 20.7874569,4.14679948 C21.040638,3.68067133 21.3916144,3.31534415 21.8392994,3.0511234 C22.2872949,2.78674993 22.7910182,2.65463956 23.3503141,2.65463956 C24.2830947,2.65463956 25.04062,3.0069848 25.6227348,3.71182799" id="Fill-29" fill="#FEFEFE"></path>
                    <path d="M28.3034895,3.72285501 C27.9567044,3.92109693 27.6841195,4.19463413 27.4863557,4.54331387 C27.2887471,4.89214635 27.18971,5.28664472 27.18971,5.72726717 C27.18971,6.16040592 27.2887471,6.55139153 27.4863557,6.90007127 C27.6841195,7.24875102 27.9567044,7.52228822 28.3034895,7.72053014 C28.6504299,7.91877206 29.0367989,8.01789302 29.4619755,8.01789302 C29.8946031,8.01789302 30.2826796,7.91877206 30.6262049,7.72053014 C30.9694198,7.52228822 31.2378135,7.24875102 31.4318517,6.90007127 C31.62589,6.55139153 31.7229091,6.16040592 31.7229091,5.72726717 C31.7229091,5.28664472 31.62589,4.89214635 31.4318517,4.54331387 C31.2378135,4.19463413 30.9694198,3.92109693 30.6262049,3.72285501 C30.2826796,3.52461309 29.8946031,3.42549213 29.4619755,3.42549213 C29.0367989,3.42549213 28.6504299,3.52461309 28.3034895,3.72285501 M31.0513816,3.05115395 C31.5214198,3.31537469 31.8925762,3.68253462 32.1651611,4.15232827 C32.4375908,4.62227464 32.5738832,5.1473561 32.5738832,5.72726717 C32.5738832,6.30717825 32.4396088,6.83042696 32.1707494,7.29640239 C31.9023557,7.762836 31.5307336,8.12801045 31.0569699,8.3922312 C30.5832061,8.65660467 30.0515413,8.78871504 29.4619755,8.78871504 C28.8724097,8.78871504 28.3407449,8.65660467 27.8668259,8.3922312 C27.3932173,8.12801045 27.0217505,7.762836 26.7533568,7.29640239 C26.4844974,6.83042696 26.3503782,6.30717825 26.3503782,5.72726717 C26.3503782,5.1473561 26.4844974,4.62227464 26.7533568,4.15232827 C27.0217505,3.68253462 27.3932173,3.31537469 27.8668259,3.05115395 C28.3407449,2.78678048 28.8724097,2.65451738 29.4619755,2.65451738 C30.0515413,2.65451738 30.5814985,2.78678048 31.0513816,3.05115395" id="Fill-31" fill="#FEFEFE"></path>
                </g>
            </g>
        </g>
    </g>
</svg>