<?xml version="1.0" encoding="UTF-8"?>
<svg width="232px" height="72px" viewBox="0 0 232 72" version="1.1" xmlns="http://www.w3.org/2000/svg" xmlns:xlink="http://www.w3.org/1999/xlink">
    <!-- Generator: Sketch 49.3 (51167) - http://www.bohemiancoding.com/sketch -->
    <title>Logo/BMG INVEST digital</title>
    <desc>Created with Sketch.</desc>
    <defs>
        <linearGradient x1="49.7999668%" y1="0%" x2="49.7999668%" y2="100%" id="linearGradient-1">
            <stop stop-color="#F89C1C" offset="0%"></stop>
            <stop stop-color="#F48120" offset="100%"></stop>
        </linearGradient>
    </defs>
    <g id="Logo/BMG-INVEST-digital" stroke="none" stroke-width="1" fill="none" fill-rule="evenodd">
        <g id="logo_invest" fill-rule="nonzero">
            <g id="Group" transform="translate(158.476190, 46.095238)" fill="#9C9EA1">
                <path d="M14.4,7.27619048 L14.4,13.3333333 C14.4,14.6666667 14.0952381,15.8857143 13.447619,16.9904762 C12.8380952,18.0952381 11.9619048,18.9333333 10.8952381,19.5809524 C9.79047619,20.1904762 8.60952381,20.5333333 7.27619048,20.5333333 C5.94285714,20.5333333 4.72380952,20.2285714 3.65714286,19.5809524 C2.55238095,18.9714286 1.71428571,18.0952381 1.1047619,16.9904762 C0.495238095,15.8857143 0.152380952,14.6666667 0.152380952,13.3333333 C0.152380952,12 0.457142857,10.7809524 1.06666667,9.71428571 C1.67619048,8.60952381 2.51428571,7.77142857 3.54285714,7.16190476 C4.60952381,6.55238095 5.79047619,6.20952381 7.08571429,6.20952381 C8.19047619,6.20952381 9.21904762,6.43809524 10.1333333,6.93333333 C11.047619,7.39047619 11.8095238,8.03809524 12.4190476,8.87619048 L12.4190476,1.37142857 C12.4190476,1.06666667 12.4952381,0.838095238 12.6857143,0.647619048 C12.8761905,0.457142857 13.1047619,0.380952381 13.4095238,0.380952381 C13.7142857,0.380952381 13.9428571,0.457142857 14.1333333,0.647619048 C14.3238095,0.838095238 14.4,1.06666667 14.4,1.37142857 L14.4,7.12380952 C14.4,7.12380952 14.4,7.2 14.4,7.27619048 Z M9.9047619,17.9809524 C10.7047619,17.5238095 11.3142857,16.8761905 11.7714286,16.0380952 C12.2285714,15.2380952 12.4571429,14.3238095 12.4571429,13.2952381 C12.4571429,12.9904762 12.4571429,12.8 12.4190476,12.647619 C12.4190476,12.6095238 12.3809524,12.5714286 12.3809524,12.5333333 C12.2285714,11.2 11.6571429,10.0952381 10.7047619,9.25714286 C9.75238095,8.41904762 8.60952381,7.96190476 7.23809524,7.96190476 C6.24761905,7.96190476 5.37142857,8.19047619 4.57142857,8.64761905 C3.77142857,9.1047619 3.16190476,9.75238095 2.7047619,10.552381 C2.24761905,11.352381 2.01904762,12.2666667 2.01904762,13.2952381 C2.01904762,14.3238095 2.24761905,15.2 2.7047619,16.0380952 C3.16190476,16.8380952 3.77142857,17.4857143 4.57142857,17.9809524 C5.37142857,18.4380952 6.24761905,18.7047619 7.23809524,18.7047619 C8.26666667,18.7047619 9.14285714,18.4380952 9.9047619,17.9809524 Z" id="Shape"></path>
                <path d="M19.6190476,1.21904762 C19.8857143,1.48571429 20.0380952,1.79047619 20.0380952,2.20952381 C20.0380952,2.59047619 19.8857143,2.93333333 19.6190476,3.2 C19.352381,3.46666667 19.0095238,3.61904762 18.6285714,3.61904762 C18.247619,3.61904762 17.9047619,3.46666667 17.6380952,3.2 C17.3714286,2.93333333 17.2571429,2.59047619 17.2571429,2.20952381 C17.2571429,1.79047619 17.4095238,1.44761905 17.6761905,1.21904762 C17.9428571,0.952380952 18.2857143,0.838095238 18.6666667,0.838095238 C19.0095238,0.838095238 19.352381,0.99047619 19.6190476,1.21904762 Z M17.9428571,6.59047619 C18.1333333,6.4 18.3619048,6.32380952 18.6666667,6.32380952 C18.9714286,6.32380952 19.2,6.4 19.3904762,6.59047619 C19.5809524,6.78095238 19.6571429,7.00952381 19.6571429,7.31428571 L19.6571429,19.352381 C19.6571429,19.6571429 19.5809524,19.8857143 19.3904762,20.0761905 C19.2,20.2666667 18.9714286,20.3428571 18.6666667,20.3428571 C18.3619048,20.3428571 18.1333333,20.2666667 17.9428571,20.0761905 C17.752381,19.8857143 17.6761905,19.6571429 17.6761905,19.352381 L17.6761905,7.31428571 C17.6380952,7.00952381 17.752381,6.78095238 17.9428571,6.59047619 Z" id="Shape"></path>
                <path d="M32.9142857,7.08571429 C33.9809524,7.6952381 34.8571429,8.53333333 35.4666667,9.63809524 C36.0761905,10.7428571 36.3809524,11.9619048 36.3809524,13.3333333 L36.3809524,18.552381 C36.3809524,19.9238095 36.0761905,21.1809524 35.4666667,22.2857143 C34.8571429,23.3904762 34.0190476,24.2666667 32.952381,24.9142857 C31.8857143,25.5619048 30.6666667,25.8666667 29.2952381,25.8666667 C27.9619048,25.8666667 26.8190476,25.6 25.7904762,25.1047619 C24.7619048,24.6095238 23.8857143,23.9238095 23.2,23.0095238 C23.047619,22.8571429 22.9714286,22.6285714 22.9714286,22.4380952 C22.9714286,22.1714286 23.0857143,21.9428571 23.3142857,21.752381 C23.4666667,21.6380952 23.6571429,21.5619048 23.8857143,21.5619048 C24.0380952,21.5619048 24.1904762,21.6 24.3428571,21.6761905 C24.4952381,21.752381 24.6095238,21.8666667 24.6857143,21.9809524 C25.1809524,22.6285714 25.8666667,23.1238095 26.6285714,23.5047619 C27.4285714,23.847619 28.3047619,24.0380952 29.2952381,24.0380952 C30.247619,24.0380952 31.1238095,23.8095238 31.8857143,23.3142857 C32.647619,22.8571429 33.2571429,22.1714286 33.7142857,21.3333333 C34.1714286,20.4952381 34.4,19.5047619 34.4,18.4380952 L34.4,17.2952381 C33.9047619,18.2857143 33.1428571,19.047619 32.2285714,19.5809524 C31.2761905,20.152381 30.2095238,20.4190476 29.0285714,20.4190476 C27.6952381,20.4190476 26.5142857,20.1142857 25.447619,19.5047619 C24.3809524,18.8952381 23.5809524,18.0571429 22.9714286,16.952381 C22.3619048,15.847619 22.0952381,14.6285714 22.0952381,13.2571429 C22.0952381,11.8857143 22.4,10.6285714 23.0095238,9.56190476 C23.6190476,8.45714286 24.4952381,7.61904762 25.5619048,7.00952381 C26.6666667,6.4 27.8857143,6.0952381 29.2190476,6.0952381 C30.6285714,6.17142857 31.847619,6.47619048 32.9142857,7.08571429 Z M31.9238095,18.0190476 C32.7238095,17.5619048 33.3333333,16.9142857 33.7904762,16.1142857 C34.247619,15.3142857 34.4761905,14.4 34.4761905,13.3714286 C34.4761905,12.3428571 34.247619,11.4285714 33.7904762,10.6285714 C33.3333333,9.82857143 32.7238095,9.18095238 31.9238095,8.72380952 C31.1238095,8.26666667 30.247619,8.03809524 29.2571429,8.03809524 C28.2285714,8.03809524 27.352381,8.26666667 26.552381,8.72380952 C25.752381,9.18095238 25.1428571,9.82857143 24.6857143,10.6285714 C24.2285714,11.4285714 24,12.3428571 24,13.3714286 C24,14.4 24.2285714,15.3142857 24.6857143,16.1142857 C25.1428571,16.9142857 25.752381,17.5619048 26.552381,18.0190476 C27.352381,18.4761905 28.2285714,18.7047619 29.2571429,18.7047619 C30.247619,18.7047619 31.1238095,18.4761905 31.9238095,18.0190476 Z" id="Shape"></path>
                <path d="M40.8380952,1.21904762 C41.1047619,1.48571429 41.2571429,1.79047619 41.2571429,2.20952381 C41.2571429,2.59047619 41.1047619,2.93333333 40.8380952,3.2 C40.5714286,3.46666667 40.2285714,3.61904762 39.847619,3.61904762 C39.4666667,3.61904762 39.1238095,3.46666667 38.8571429,3.2 C38.5904762,2.93333333 38.4761905,2.59047619 38.4761905,2.20952381 C38.4761905,1.79047619 38.6285714,1.44761905 38.8952381,1.21904762 C39.1619048,0.952380952 39.5047619,0.838095238 39.8857143,0.838095238 C40.2285714,0.838095238 40.5333333,0.99047619 40.8380952,1.21904762 Z M39.1238095,6.59047619 C39.3142857,6.4 39.5428571,6.32380952 39.847619,6.32380952 C40.152381,6.32380952 40.3809524,6.4 40.5714286,6.59047619 C40.7619048,6.78095238 40.8380952,7.00952381 40.8380952,7.31428571 L40.8380952,19.352381 C40.8380952,19.6571429 40.7619048,19.8857143 40.5714286,20.0761905 C40.3809524,20.2666667 40.152381,20.3428571 39.847619,20.3428571 C39.5428571,20.3428571 39.3142857,20.2666667 39.1238095,20.0761905 C38.9333333,19.8857143 38.8571429,19.6571429 38.8571429,19.352381 L38.8571429,7.31428571 C38.8571429,7.00952381 38.9333333,6.78095238 39.1238095,6.59047619 Z" id="Shape"></path>
                <path d="M50.8952381,18.6666667 C51.047619,18.8571429 51.1619048,19.0857143 51.1619048,19.3904762 C51.1619048,19.6571429 51.047619,19.8857143 50.8571429,20.0761905 C50.6666667,20.2666667 50.4,20.3428571 50.0952381,20.3428571 L49.5619048,20.3428571 C48.647619,20.3428571 47.847619,20.1142857 47.1238095,19.6952381 C46.4,19.2761905 45.8285714,18.6666667 45.447619,17.9428571 C45.0285714,17.1809524 44.8380952,16.3428571 44.8380952,15.4285714 L44.8380952,8.57142857 L43.1619048,8.57142857 C42.8952381,8.57142857 42.6666667,8.4952381 42.5142857,8.34285714 C42.3619048,8.19047619 42.2857143,7.96190476 42.2857143,7.73333333 C42.2857143,7.46666667 42.3619048,7.27619048 42.5142857,7.08571429 C42.6666667,6.93333333 42.8952381,6.85714286 43.1619048,6.85714286 L44.8380952,6.85714286 L44.8380952,2.8952381 C44.8380952,2.59047619 44.9142857,2.36190476 45.1047619,2.17142857 C45.2952381,1.98095238 45.5238095,1.9047619 45.8285714,1.9047619 C46.1333333,1.9047619 46.3619048,1.98095238 46.552381,2.17142857 C46.7428571,2.36190476 46.8190476,2.59047619 46.8190476,2.8952381 L46.8190476,6.85714286 L49.7142857,6.85714286 C49.9809524,6.85714286 50.2095238,6.93333333 50.3619048,7.08571429 C50.5142857,7.23809524 50.5904762,7.46666667 50.5904762,7.73333333 C50.5904762,7.96190476 50.5142857,8.19047619 50.3619048,8.34285714 C50.2095238,8.4952381 49.9809524,8.57142857 49.7142857,8.57142857 L46.8190476,8.57142857 L46.8190476,15.4285714 C46.8190476,16.3047619 47.0857143,17.0285714 47.5809524,17.5619048 C48.0761905,18.1333333 48.7619048,18.4 49.5619048,18.4 L50.247619,18.4 C50.5142857,18.4 50.7428571,18.4761905 50.8952381,18.6666667 Z" id="Shape"></path>
                <path d="M62.5904762,7.12380952 C63.6952381,7.73333333 64.5333333,8.60952381 65.1428571,9.71428571 C65.752381,10.8190476 66.0952381,12.0380952 66.0952381,13.3714286 L66.0952381,19.3904762 C66.0952381,19.6571429 66.0190476,19.8857143 65.8285714,20.0761905 C65.6380952,20.2666667 65.4095238,20.3428571 65.1047619,20.3428571 C64.8,20.3428571 64.5714286,20.2666667 64.3809524,20.0761905 C64.1904762,19.8857143 64.1142857,19.6571429 64.1142857,19.352381 L64.1142857,17.8285714 C63.5047619,18.6666667 62.7428571,19.3142857 61.8285714,19.7714286 C60.9142857,20.2285714 59.8857143,20.4952381 58.7809524,20.4952381 C57.4857143,20.4952381 56.3047619,20.1904762 55.2380952,19.5428571 C54.1714286,18.9333333 53.3714286,18.0571429 52.7619048,16.9904762 C52.152381,15.8857143 51.847619,14.7047619 51.847619,13.3714286 C51.847619,12.0380952 52.152381,10.8190476 52.8,9.71428571 C53.4095238,8.60952381 54.2857143,7.77142857 55.352381,7.12380952 C56.4571429,6.51428571 57.6380952,6.17142857 58.9714286,6.17142857 C60.3047619,6.17142857 61.5238095,6.51428571 62.5904762,7.12380952 Z M61.6,17.9809524 C62.4,17.5238095 63.0095238,16.8761905 63.4666667,16.0761905 C63.9238095,15.2761905 64.152381,14.3619048 64.152381,13.3333333 C64.152381,12.3047619 63.9238095,11.4285714 63.4666667,10.5904762 C63.0095238,9.79047619 62.4,9.14285714 61.6,8.64761905 C60.8,8.19047619 59.9238095,7.92380952 58.9714286,7.92380952 C57.9809524,7.92380952 57.1047619,8.15238095 56.3047619,8.64761905 C55.5047619,9.1047619 54.8952381,9.75238095 54.4380952,10.5904762 C53.9809524,11.3904762 53.752381,12.3047619 53.752381,13.3333333 C53.752381,14.3619048 53.9809524,15.2380952 54.4380952,16.0761905 C54.8952381,16.8761905 55.5047619,17.5238095 56.3047619,17.9809524 C57.1047619,18.4380952 57.9809524,18.6666667 58.9714286,18.6666667 C59.9619048,18.7047619 60.8380952,18.4761905 61.6,17.9809524 Z" id="Shape"></path>
                <path d="M67.9238095,0.571428571 C68.1142857,0.380952381 68.3428571,0.304761905 68.6095238,0.304761905 C68.9142857,0.304761905 69.1428571,0.380952381 69.3333333,0.571428571 C69.5238095,0.761904762 69.6,0.99047619 69.6,1.2952381 L69.6,15.9238095 C69.6,16.647619 69.752381,17.2571429 70.0571429,17.7142857 C70.3619048,18.1714286 70.7428571,18.4 71.2,18.4 L71.847619,18.4 C72.1142857,18.4 72.3047619,18.4761905 72.4571429,18.6666667 C72.6095238,18.8571429 72.6857143,19.0857143 72.6857143,19.3904762 C72.6857143,19.6952381 72.5714286,19.9238095 72.3809524,20.1142857 C72.152381,20.3047619 71.8857143,20.3809524 71.5428571,20.3809524 L71.2,20.3809524 C70.1714286,20.3809524 69.2952381,19.9619048 68.647619,19.1238095 C68,18.2857143 67.6571429,17.2190476 67.6571429,15.9238095 L67.6571429,1.2952381 C67.6571429,0.99047619 67.7333333,0.761904762 67.9238095,0.571428571 Z" id="Shape"></path>
            </g>
            <path d="M135.2,6.01904762 C134.628571,6.01904762 134.133333,6.20952381 133.752381,6.59047619 C133.371429,6.97142857 133.142857,7.46666667 133.142857,8.07619048 L133.142857,26.4380952 L118.361905,6.74285714 C118.171429,6.55238095 117.942857,6.36190476 117.67619,6.20952381 C117.371429,6.05714286 117.104762,5.98095238 116.8,5.98095238 C116.228571,5.98095238 115.733333,6.17142857 115.352381,6.55238095 C114.971429,6.93333333 114.780952,7.42857143 114.780952,8.03809524 L114.780952,31.6952381 C114.780952,32.3047619 114.971429,32.8 115.352381,33.1809524 C115.733333,33.5619048 116.228571,33.752381 116.8,33.752381 C117.409524,33.752381 117.904762,33.5619048 118.285714,33.1428571 C118.666667,32.7619048 118.857143,32.2666667 118.857143,31.6952381 L118.857143,13.3714286 L133.638095,33.0285714 C133.790476,33.2952381 134.057143,33.4857143 134.361905,33.6 C134.666667,33.7142857 134.933333,33.7904762 135.238095,33.7904762 C135.809524,33.7904762 136.304762,33.6 136.685714,33.2190476 C137.066667,32.8380952 137.257143,32.3428571 137.257143,31.7333333 L137.257143,8.07619048 C137.257143,7.46666667 137.066667,6.97142857 136.685714,6.59047619 C136.266667,6.20952381 135.771429,6.01904762 135.2,6.01904762 Z M107.390476,6.01904762 C106.819048,6.01904762 106.32381,6.20952381 105.942857,6.59047619 C105.561905,6.97142857 105.333333,7.46666667 105.333333,8.07619048 L105.333333,31.7333333 C105.333333,32.3047619 105.52381,32.8 105.942857,33.2190476 C106.32381,33.6 106.819048,33.8285714 107.428571,33.8285714 C108.038095,33.8285714 108.533333,33.6380952 108.914286,33.2190476 C109.295238,32.8380952 109.485714,32.3428571 109.485714,31.7714286 L109.485714,8.11428571 C109.485714,7.5047619 109.295238,7.00952381 108.914286,6.62857143 C108.495238,6.20952381 108,6.01904762 107.390476,6.01904762 Z M162.666667,6.01904762 C162.209524,6.01904762 161.828571,6.0952381 161.52381,6.28571429 C161.219048,6.47619048 160.990476,6.78095238 160.8,7.27619048 L152.07619,27.847619 L143.504762,7.27619048 C143.161905,6.43809524 142.514286,6.05714286 141.6,6.05714286 C141.028571,6.05714286 140.571429,6.20952381 140.228571,6.51428571 C139.885714,6.81904762 139.695238,7.27619048 139.695238,7.80952381 C139.695238,8.15238095 139.809524,8.60952381 140,9.14285714 L150.247619,32.5333333 C150.628571,33.4095238 151.27619,33.8285714 152.114286,33.8285714 C153.028571,33.8285714 153.638095,33.3714286 153.980952,32.5333333 L164.304762,8.8 C164.457143,8.45714286 164.533333,8.11428571 164.533333,7.80952381 C164.533333,7.31428571 164.342857,6.85714286 164.038095,6.55238095 C163.695238,6.17142857 163.238095,6.01904762 162.666667,6.01904762 Z M230.666667,6.55238095 C230.32381,6.20952381 229.828571,6.01904762 229.295238,6.01904762 L210.590476,6.01904762 C210.019048,6.01904762 209.561905,6.20952381 209.219048,6.55238095 C208.87619,6.8952381 208.685714,7.39047619 208.685714,7.92380952 C208.685714,8.45714286 208.87619,8.95238095 209.219048,9.2952381 C209.561905,9.63809524 210.057143,9.82857143 210.590476,9.82857143 L217.904762,9.82857143 L217.904762,31.6952381 C217.904762,32.2666667 218.095238,32.7619048 218.514286,33.1809524 C218.895238,33.5619048 219.390476,33.7904762 220,33.7904762 C220.609524,33.7904762 221.066667,33.6 221.485714,33.1809524 C221.866667,32.8 222.095238,32.3047619 222.095238,31.6952381 L222.095238,9.82857143 L229.371429,9.82857143 C229.942857,9.82857143 230.4,9.63809524 230.742857,9.2952381 C231.085714,8.95238095 231.27619,8.45714286 231.27619,7.92380952 C231.27619,7.39047619 231.047619,6.93333333 230.666667,6.55238095 Z M206.819048,20.2285714 C205.257143,18.7809524 203.009524,17.9047619 200.190476,17.6380952 C197.752381,17.3714286 196.038095,16.8761905 195.085714,16.0761905 C194.171429,15.3142857 193.714286,14.3619048 193.714286,13.2190476 C193.714286,12 194.209524,11.0857143 195.238095,10.4380952 C196.304762,9.79047619 197.67619,9.44761905 199.390476,9.44761905 C200.8,9.44761905 201.942857,9.71428571 202.857143,10.247619 C203.771429,10.7809524 204.533333,11.5428571 205.104762,12.5333333 C205.295238,12.8761905 205.561905,13.1428571 205.904762,13.3333333 C206.247619,13.5238095 206.628571,13.6380952 207.009524,13.6380952 C207.390476,13.6380952 207.771429,13.5238095 208.07619,13.3333333 C208.609524,12.952381 208.87619,12.4571429 208.87619,11.8857143 C208.87619,11.4285714 208.72381,10.9714286 208.419048,10.5142857 C207.428571,8.99047619 206.247619,7.77142857 204.838095,6.93333333 C203.428571,6.0952381 201.67619,5.67619048 199.657143,5.67619048 C197.790476,5.67619048 196.07619,5.98095238 194.590476,6.55238095 C193.066667,7.12380952 191.847619,8 191.009524,9.1047619 C190.133333,10.2095238 189.67619,11.5809524 189.67619,13.1047619 C189.67619,15.2761905 190.552381,17.1428571 192.228571,18.5904762 C193.904762,20.0380952 196.266667,20.9142857 199.161905,21.1809524 C201.180952,21.3714286 202.704762,21.9428571 203.695238,22.8571429 C204.685714,23.7714286 205.142857,24.8 205.142857,26.0952381 C205.142857,27.4285714 204.571429,28.4190476 203.428571,29.1809524 C202.247619,29.9428571 200.8,30.3619048 199.12381,30.3619048 C197.67619,30.3619048 196.342857,30.0571429 195.161905,29.447619 C193.980952,28.8380952 193.180952,28.1142857 192.8,27.2761905 C192.609524,26.8571429 192.342857,26.5142857 191.961905,26.2857143 C191.580952,26.0571429 191.161905,25.9047619 190.742857,25.9047619 C190.552381,25.9047619 190.438095,25.9047619 190.32381,25.9428571 C189.828571,26.0571429 189.447619,26.247619 189.142857,26.552381 C188.838095,26.8571429 188.685714,27.2380952 188.685714,27.6571429 C188.685714,27.8857143 188.761905,28.152381 188.87619,28.4571429 C189.6,30.1714286 190.933333,31.5428571 192.8,32.6095238 C194.666667,33.6380952 196.8,34.1714286 199.085714,34.1714286 C200.838095,34.1714286 202.47619,33.8666667 204,33.2571429 C205.52381,32.647619 206.780952,31.7333333 207.733333,30.4761905 C208.685714,29.2571429 209.142857,27.7333333 209.142857,26.0190476 C209.219048,23.6190476 208.419048,21.6761905 206.819048,20.2285714 Z M184.87619,9.86666667 C185.485714,9.86666667 185.980952,9.67619048 186.32381,9.33333333 C186.704762,8.99047619 186.895238,8.53333333 186.895238,7.96190476 C186.895238,7.39047619 186.704762,6.8952381 186.32381,6.55238095 C185.942857,6.20952381 185.447619,6.01904762 184.87619,6.01904762 L169.104762,6.01904762 C168.533333,6.01904762 168.038095,6.20952381 167.657143,6.59047619 C167.27619,6.97142857 167.047619,7.46666667 167.047619,8.07619048 L167.047619,31.7333333 C167.047619,32.3047619 167.238095,32.8 167.657143,33.2190476 C168.038095,33.6 168.533333,33.8285714 169.142857,33.8285714 L184.914286,33.8285714 C185.52381,33.8285714 186.019048,33.6380952 186.361905,33.2952381 C186.742857,32.952381 186.933333,32.4571429 186.933333,31.8857143 C186.933333,31.3142857 186.742857,30.8571429 186.361905,30.5142857 C185.980952,30.1714286 185.485714,29.9809524 184.914286,29.9809524 L171.2,29.9809524 L171.2,21.7142857 L180.990476,21.7142857 C181.561905,21.7142857 182.057143,21.5238095 182.438095,21.1809524 C182.819048,20.8380952 183.009524,20.3428571 183.009524,19.8095238 C183.009524,19.2380952 182.819048,18.7809524 182.438095,18.4380952 C182.057143,18.0952381 181.561905,17.9047619 180.990476,17.9047619 L171.2,17.9047619 L171.2,9.9047619 L184.87619,9.9047619 L184.87619,9.86666667 Z" id="Shape" fill="#F89C1C"></path>
            <g id="Group" fill="url(#linearGradient-1)">
                <path d="M89.0285714,14.0952381 C88.6857143,14.0952381 88.5714286,13.6761905 88.8761905,13.5238095 C90.4,12.647619 91.5809524,11.1619048 92.0761905,9.37142857 C93.0285714,5.75238095 90.8952381,2.05714286 87.352381,1.06666667 C87.0857143,0.99047619 86.8190476,0.914285714 86.5904762,0.838095238 C84.9904762,0.419047619 83.352381,0.228571429 81.752381,0.228571429 C75.0095238,0.228571429 68.9142857,3.73333333 65.5619048,9.14285714 C65.4095238,9.37142857 65.0285714,9.33333333 64.9904762,9.02857143 L64.7238095,7.61904762 C64.5714286,6.78095238 64.3047619,6.01904762 63.9619048,5.2952381 C62.5142857,2.32380952 59.4666667,0.419047619 56.1904762,0.419047619 C55.4285714,0.419047619 54.6666667,0.533333333 53.9428571,0.723809524 C51.1238095,1.48571429 48.8761905,3.65714286 47.9619048,6.47619048 L47.8857143,6.66666667 C47.8095238,6.97142857 47.3904762,6.97142857 47.2761905,6.66666667 L47.2380952,6.47619048 C46.3238095,3.65714286 44.0761905,1.48571429 41.2571429,0.723809524 C40.5333333,0.533333333 39.7714286,0.419047619 39.0095238,0.419047619 C35.7333333,0.419047619 32.6857143,2.32380952 31.2380952,5.2952381 C30.8952381,5.98095238 30.6285714,6.78095238 30.4761905,7.61904762 L29.4095238,13.5238095 C29.3714286,13.752381 29.0666667,13.8666667 28.9142857,13.6761905 C28.8380952,13.6 28.8,13.5238095 28.8380952,13.4095238 C28.9142857,12.8761905 28.952381,12.3809524 28.952381,11.847619 C28.952381,5.56190476 23.6952381,0.419047619 17.4095238,0.419047619 L5.82857143,0.419047619 C2.74285714,0.419047619 0.266666667,2.8952381 0.266666667,5.98095238 L0.266666667,30.7047619 C0.266666667,33.752381 2.74285714,36.2666667 5.82857143,36.2666667 C5.82857143,36.2666667 20.0380952,36.2666667 20.0380952,36.2666667 C22.8190476,36.2666667 25.447619,35.2380952 27.4666667,33.4095238 L27.6952381,33.1809524 C27.847619,33.0666667 28.0380952,33.0666667 28.152381,33.2190476 C29.1428571,34.552381 30.552381,35.5428571 32.1904762,36 C32.8380952,36.1904762 33.4857143,36.2666667 34.1333333,36.2666667 C36.7619048,36.2666667 39.1238095,34.8952381 40.4571429,32.7238095 C40.5714286,32.5333333 40.8380952,32.5333333 40.9904762,32.7238095 C42.4380952,34.8952381 44.8761905,36.2666667 47.5428571,36.2666667 L47.5809524,36.2666667 C48.8380952,36.2666667 50.1333333,35.9619048 51.2380952,35.352381 C52.4190476,34.7428571 53.3714286,33.8285714 54.0952381,32.7238095 C54.2095238,32.5333333 54.5142857,32.5333333 54.6285714,32.7238095 C55.9619048,34.8952381 58.3238095,36.2666667 60.952381,36.2666667 C61.6,36.2666667 62.247619,36.1904762 62.8952381,36 C65.3333333,35.352381 67.1238095,33.5619048 67.9238095,31.352381 C68,31.1238095 68.2666667,31.0857143 68.4190476,31.2380952 C70.7047619,33.447619 73.6,35.047619 76.8380952,35.8857143 C78.4380952,36.3047619 80.0761905,36.4952381 81.6761905,36.4952381 C85.5619048,36.4952381 89.2571429,35.352381 92.4571429,33.2190476 C94.3238095,31.9619048 95.4285714,29.8666667 95.4285714,27.6190476 L95.4285714,20.6095238 C95.4285714,17.0666667 92.5333333,14.1333333 89.0285714,14.0952381 Z M93.9428571,27.5809524 C93.9428571,29.3333333 93.0666667,30.9714286 91.6571429,31.9238095 C88.7238095,33.9047619 85.2952381,34.9714286 81.7142857,34.9714286 C80.1904762,34.9714286 78.7047619,34.7809524 77.2190476,34.4 C72.9142857,33.2952381 69.3333333,30.7047619 66.9714286,27.1238095 C66.8952381,27.0095238 66.6666667,27.0857143 66.7047619,27.2380952 C67.4285714,30.552381 65.6,33.7142857 62.4761905,34.552381 C61.9809524,34.7047619 61.447619,34.7428571 60.9142857,34.7428571 C60.9142857,34.7428571 60.9142857,34.7428571 60.9142857,34.7428571 C58.2095238,34.7428571 55.847619,32.9142857 55.1619048,30.247619 L55.1619048,30.2095238 L54.7047619,27.5809524 C54.6666667,27.4285714 54.4761905,27.4285714 54.4380952,27.5428571 L53.5619048,30.247619 C53.0285714,31.8857143 51.9619048,33.1809524 50.5142857,33.9428571 C49.6,34.4380952 48.5714286,34.6666667 47.5428571,34.6666667 L47.5047619,34.6666667 C44.7619048,34.6666667 42.2857143,32.8761905 41.4095238,30.2095238 L40.5714286,27.5428571 C40.5333333,27.3904762 40.3047619,27.4285714 40.3047619,27.5428571 L39.847619,30.1333333 L39.847619,30.1714286 C39.1619048,32.8 36.8,34.6666667 34.0952381,34.6666667 C33.5619048,34.6666667 33.0666667,34.5904762 32.5333333,34.4761905 C30.4761905,33.9047619 28.9904762,32.3428571 28.3809524,30.4380952 C28.3428571,30.247619 28.0761905,30.2095238 27.9619048,30.4 C27.6190476,30.9333333 27.2,31.4285714 26.7428571,31.8857143 C24.9142857,33.7142857 22.5142857,34.7047619 19.9238095,34.7047619 C19.9238095,34.7047619 5.71428571,34.7047619 5.71428571,34.7047619 C3.46666667,34.7047619 1.63809524,32.8761905 1.63809524,30.6285714 L1.63809524,5.9047619 C1.63809524,3.65714286 3.46666667,1.82857143 5.71428571,1.82857143 L17.2190476,1.82857143 C22.7047619,1.82857143 27.2761905,6.24761905 27.2761905,11.7714286 C27.2761905,13.7142857 26.7428571,15.5809524 25.6761905,17.1809524 C25.6380952,17.2571429 25.6380952,17.3333333 25.7142857,17.3714286 C27.2380952,18.5142857 28.3428571,20.0380952 28.9904762,21.7904762 C29.0285714,21.9428571 29.2571429,21.9047619 29.2571429,21.752381 L31.8095238,7.77142857 C31.9238095,7.04761905 32.152381,6.43809524 32.4190476,5.86666667 C33.6380952,3.42857143 36.152381,1.82857143 38.8190476,1.82857143 C39.4285714,1.82857143 40.0761905,1.9047619 40.6857143,2.0952381 C43.047619,2.74285714 44.8761905,4.53333333 45.6380952,6.85714286 L46.9714286,10.8952381 C47.1238095,11.3142857 47.7333333,11.3142857 47.847619,10.8952381 L49.1809524,6.85714286 C49.9428571,4.53333333 51.8095238,2.74285714 54.1333333,2.0952381 C54.7428571,1.94285714 55.3904762,1.82857143 56,1.82857143 C58.7047619,1.82857143 61.2190476,3.39047619 62.4,5.86666667 C62.6666667,6.43809524 62.8952381,7.08571429 63.0095238,7.77142857 L64.1142857,13.9047619 C64.1904762,14.247619 64.647619,14.2857143 64.7619048,13.9428571 C66.7809524,6.7047619 73.6761905,1.63809524 81.4857143,1.63809524 C83.0095238,1.63809524 84.4952381,1.82857143 85.9809524,2.20952381 C86.2095238,2.28571429 86.4380952,2.32380952 86.7047619,2.4 C86.7047619,2.4 86.7047619,2.4 86.7047619,2.4 C89.4857143,3.16190476 91.1619048,6.05714286 90.4,8.87619048 C89.7904762,11.2 87.6952381,12.8 85.3333333,12.8 C85.0285714,12.8 84.7238095,12.7619048 84.4571429,12.7238095 L83.9619048,12.6095238 C83.847619,12.5714286 83.6952381,12.5333333 83.5809524,12.4952381 C83.4285714,12.4571429 83.3142857,12.4190476 83.2,12.3809524 C82.6666667,12.2285714 82.0952381,12.152381 81.5238095,12.152381 C78.6285714,12.152381 76.0761905,14.0190476 75.352381,16.6857143 C74.9333333,18.2095238 75.1238095,19.8095238 75.9238095,21.1809524 C76.7619048,22.6285714 78.1714286,23.6952381 79.847619,24.1142857 C80.3809524,24.2666667 80.952381,24.3428571 81.5238095,24.3428571 C81.8285714,24.3428571 82.0952381,24.3047619 82.4,24.2666667 C82.7047619,24.2285714 82.9333333,23.9619048 82.9333333,23.6571429 L82.9333333,22.8952381 C82.9333333,22.5904762 82.7428571,22.3619048 82.4380952,22.2857143 C81.6761905,22.1333333 80.952381,21.7142857 80.4571429,21.0666667 C79.8095238,20.2666667 79.5428571,19.2380952 79.7714286,18.247619 C79.7714286,18.1714286 79.8095238,18.1333333 79.8095238,18.0571429 C80.2285714,16.5333333 81.5619048,15.4666667 83.1238095,15.4666667 L88.8,15.4666667 C91.5428571,15.5047619 93.752381,17.752381 93.752381,20.4571429 L93.752381,27.5809524 L93.9428571,27.5809524 Z M78.5904762,19.3904762 C78.6285714,19.7714286 78.7428571,20.152381 78.8571429,20.5333333 C79.0095238,20.9142857 79.1619048,21.2952381 79.3904762,21.6761905 L79.3904762,21.7142857 C79.5047619,21.9047619 79.4285714,22.2095238 79.2380952,22.3238095 C79.0857143,22.4 78.9333333,22.4 78.7809524,22.3238095 C77.8666667,21.7904762 77.2190476,20.8761905 76.9142857,19.8095238 C76.7619048,19.2761905 76.6857143,18.7428571 76.7238095,18.1714286 C76.7619048,17.6 76.8761905,17.0666667 77.0666667,16.5714286 C77.447619,15.5428571 78.2095238,14.6285714 79.1238095,14.0571429 C80.0380952,13.4857143 81.1428571,13.2190476 82.1714286,13.3714286 C82.4,13.4095238 82.5904762,13.6380952 82.552381,13.8666667 C82.5142857,14.0571429 82.4,14.1714286 82.247619,14.2095238 C81.4095238,14.4380952 80.6857143,14.8190476 80.1142857,15.3142857 C79.5428571,15.8095238 79.0857143,16.4571429 78.8571429,17.1809524 C78.7428571,17.5238095 78.6666667,17.9047619 78.5904762,18.2857143 C78.552381,18.6285714 78.552381,19.0095238 78.5904762,19.3904762 Z" id="Shape"></path>
                <path d="M88.9904762,16.647619 L83.3142857,16.647619 C82.247619,16.647619 81.2952381,17.3714286 81.0285714,18.4380952 C81.0285714,18.4761905 80.9904762,18.5142857 80.9904762,18.5904762 C80.6857143,20.0380952 81.8666667,21.4095238 83.352381,21.4095238 L83.847619,21.4095238 C84.0380952,21.4095238 84.1904762,21.5619048 84.1904762,21.752381 L84.1904762,24.3809524 C84.1904762,24.8380952 83.8857143,25.2190476 83.4666667,25.2952381 C82.2857143,25.5619048 81.0285714,25.5619048 79.7714286,25.2571429 C75.7714286,24.2285714 73.4095238,20.3047619 74.4761905,16.4952381 C75.5428571,12.6857143 79.6190476,10.4 83.6190476,11.4285714 C83.7714286,11.4666667 83.9238095,11.5047619 84.0761905,11.5809524 C84.1904762,11.6190476 84.3047619,11.6571429 84.4571429,11.6952381 C86.6666667,12.3047619 88.952381,10.9714286 89.5619048,8.68571429 C90.1714286,6.43809524 88.8380952,4.11428571 86.6285714,3.5047619 C86.6285714,3.5047619 86.6285714,3.5047619 86.6285714,3.5047619 C86.4,3.42857143 86.1714286,3.35238095 85.9428571,3.31428571 C77.2952381,1.1047619 68.3809524,6.01904762 66.0571429,14.3238095 C63.7333333,22.6285714 68.8761905,31.1619048 77.5238095,33.3714286 C82.3619048,34.6285714 87.2761905,33.6380952 91.0857143,31.047619 C92.2285714,30.2857143 92.9142857,28.952381 92.9142857,27.5809524 L92.9142857,20.5714286 C92.8761905,18.4380952 91.1238095,16.6857143 88.9904762,16.647619 Z" id="Shape"></path>
                <path d="M62.1333333,8.07619048 C62.0190476,7.5047619 61.8666667,6.97142857 61.6,6.43809524 C60.3428571,3.84761905 57.4095238,2.43809524 54.552381,3.23809524 C52.4952381,3.80952381 50.9333333,5.37142857 50.3238095,7.31428571 L47.847619,14.8190476 C47.7333333,15.1238095 47.3142857,15.1238095 47.2,14.8190476 L44.7238095,7.31428571 C44.1142857,5.37142857 42.552381,3.80952381 40.4952381,3.23809524 C37.6380952,2.47619048 34.7047619,3.88571429 33.447619,6.43809524 C33.1809524,6.97142857 33.0285714,7.5047619 32.9142857,8.07619048 L29.447619,27.4285714 C28.7619048,30.0952381 30.2857143,32.8 32.9142857,33.5238095 C35.5047619,34.247619 38.2095238,32.647619 38.8952381,30.0190476 L39.9238095,23.9619048 C40,23.6190476 40.4952381,23.5809524 40.5714286,23.9238095 L42.4761905,29.9809524 C43.2,32.152381 45.1809524,33.7142857 47.5428571,33.7142857 C48.4190476,33.7142857 49.2952381,33.4857143 50.0190476,33.1047619 C51.2380952,32.4571429 52.1142857,31.3142857 52.5333333,30.0190476 L54.4761905,23.9238095 C54.5904762,23.5809524 55.0857143,23.6190476 55.1238095,23.9619048 L56.152381,30.0571429 C56.8380952,32.7238095 59.5428571,34.2857143 62.1333333,33.5619048 C64.7238095,32.8380952 66.1714286,30.2095238 65.6,27.4666667 L62.1333333,8.07619048 Z" id="Shape"></path>
                <path d="M24.647619,17.9047619 C24.4190476,17.752381 24.3428571,17.447619 24.5333333,17.2190476 C25.6761905,15.7333333 26.3619048,13.8666667 26.3619048,11.847619 C26.3619048,6.93333333 22.4,2.97142857 17.4857143,2.97142857 L5.82857143,2.97142857 C4.19047619,2.97142857 2.81904762,4.3047619 2.81904762,5.98095238 L2.81904762,30.7047619 C2.81904762,32.3428571 4.15238095,33.7142857 5.82857143,33.7142857 L20.0380952,33.7142857 C24.7619048,33.7142857 28.6095238,29.8666667 28.6095238,25.1428571 C28.6095238,22.0952381 27.047619,19.4285714 24.647619,17.9047619 Z M16.8,25.4857143 C16.4190476,25.9047619 15.9238095,26.1333333 15.3904762,26.1333333 L13.3333333,26.1333333 C13.0285714,26.1333333 12.7619048,25.8666667 12.7619048,25.5619048 L12.7619048,22.8190476 C12.7619048,22.5142857 13.0285714,22.247619 13.3333333,22.247619 L15.352381,22.247619 C16.3809524,22.247619 17.2190476,23.0095238 17.3333333,24 C17.3714286,24.5333333 17.1809524,25.0666667 16.8,25.4857143 Z M16.8,13.6761905 C16.4190476,14.0952381 15.9238095,14.3238095 15.3904762,14.3238095 L13.3333333,14.3238095 C13.0285714,14.3238095 12.7619048,14.0571429 12.7619048,13.752381 L12.7619048,11.0095238 C12.7619048,10.7047619 13.0285714,10.4380952 13.3333333,10.4380952 L15.352381,10.4380952 C16.3809524,10.4380952 17.2190476,11.2 17.3333333,12.1904762 C17.3714286,12.7238095 17.1809524,13.2952381 16.8,13.6761905 Z" id="Shape"></path>
            </g>
        </g>
    </g>
</svg>