<svg xmlns="http://www.w3.org/2000/svg" width="91" height="20" viewBox="0 0 91 20"><g fill="none" fill-rule="evenodd"><path fill="#FFF" d="M13.082 4.374c2.27 0 3.722 2.196 3.722 2.196s-2.215 1.202-2.215 3.812c0 3.097 2.782 3.998 2.782 3.998s-2.196 5.209-4.66 5.209c-1.387 0-1.48-.797-3.322-.797-1.6 0-2.14.797-3.358.797C3.705 19.589.7 14.511.7 10.382c0-4.29 3.042-6.008 4.95-6.008 1.674 0 2.371.986 3.72.986 1.135 0 2.029-.986 3.712-.986zM12.692 0c.334 2.103-1.573 4.703-3.852 4.618C8.505 1.943 10.961.141 12.692 0z"/><path d="M31.568 5.941c.131.51.272 1.04.454 1.612l1.047 3.03H30.09l1.031-3.05a25.18 25.18 0 0 0 .446-1.592zm-.921-1.88l-3.883 11.43h1.778l1.159-3.51h3.76l1.192 3.51h1.827l-3.9-11.43h-1.933zm10.427 4.395c1.541 0 2.23 1.428 2.23 2.843 0 1.825-.88 2.96-2.296 2.96a2.096 2.096 0 0 1-2.037-1.605 2.206 2.206 0 0 1-.062-.56v-1.39c0-.127.028-.28.055-.428a3.76 3.76 0 0 0 .025-.14c.258-.99 1.114-1.68 2.085-1.68zm.43-1.431c-1.178 0-2.12.454-2.749 1.318l-.069-1.136h-1.581l.009.145c.047.708.066 1.488.066 2.607v8.81h1.73v-4.112c.536.642 1.392 1.016 2.363 1.016 1.01 0 1.942-.396 2.62-1.114.758-.8 1.157-1.951 1.157-3.326 0-1.215-.347-2.265-1.004-3.037a3.29 3.29 0 0 0-2.542-1.171zm8.474 1.431c1.541 0 2.231 1.428 2.231 2.843 0 1.825-.88 2.96-2.297 2.96a2.096 2.096 0 0 1-2.037-1.605 2.208 2.208 0 0 1-.06-.56v-1.39c0-.128.027-.28.054-.43a9.98 9.98 0 0 0 .025-.138c.257-.99 1.114-1.68 2.084-1.68zm.43-1.431c-1.177 0-2.12.454-2.749 1.318l-.068-1.136h-1.582l.01.145c.046.709.066 1.488.066 2.607v8.81h1.73v-4.112c.536.642 1.392 1.016 2.362 1.016a3.57 3.57 0 0 0 2.622-1.114c.756-.8 1.156-1.951 1.156-3.326 0-1.215-.348-2.265-1.005-3.037a3.288 3.288 0 0 0-2.541-1.171zm11.156 1.88c-1.613-.625-2.13-1.117-2.13-2.025 0-.765.607-1.536 1.965-1.536 1.12 0 1.837.39 2.03.51l.146.09.488-1.443-.096-.056c-.29-.17-1.115-.565-2.518-.565-2.205 0-3.746 1.302-3.746 3.165 0 1.503.965 2.553 3.035 3.306 1.468.549 2.014 1.11 2.014 2.074 0 1.09-.843 1.767-2.198 1.767-.883 0-1.791-.258-2.492-.707l-.15-.096-.464 1.476.085.057c.653.436 1.882.751 2.922.751 2.972 0 4.026-1.812 4.026-3.364 0-1.6-.845-2.587-2.917-3.404m6.03-3.667l-1.696.532v1.437h-1.242v1.382h1.242v4.233c0 1.024.196 1.74.599 2.194.386.424.98.657 1.673.657.653 0 1.118-.13 1.336-.206l.097-.035-.083-1.384-.165.05c-.22.068-.443.094-.805.094-.67 0-.956-.424-.956-1.42V8.59h2.086V7.207h-2.086v-1.97m6.321 3.153c1.556 0 2.264 1.516 2.264 2.926 0 1.734-.966 2.992-2.297 2.992h-.016c-1.312 0-2.264-1.237-2.264-2.942 0-1.481.716-2.976 2.313-2.976zm.05-1.365c-2.42 0-4.109 1.806-4.109 4.39 0 2.507 1.635 4.258 3.977 4.258h.016c1.98 0 4.11-1.379 4.11-4.407 0-1.23-.382-2.288-1.103-3.058-.725-.774-1.725-1.183-2.89-1.183zm9.29.08l-.104-.026a1.658 1.658 0 0 0-.43-.054c-.905 0-1.717.532-2.168 1.392l-.051-1.21H78.95l.01.145c.046.685.065 1.453.065 2.49l-.016 5.65h1.73v-4.408c0-.24.016-.467.047-.67.195-1.059.91-1.743 1.82-1.743.177 0 .316.015.464.03l.185.018V7.105m3.772 1.219c.527 0 .954.163 1.27.484.497.506.584 1.252.595 1.61h-3.944c.16-.999.785-2.094 2.08-2.094zm.115-1.316c-2.302 0-3.91 1.84-3.91 4.473 0 2.536 1.6 4.176 4.076 4.176 1.302 0 2.208-.286 2.738-.526l.104-.047-.333-1.288-.144.058c-.471.192-1.098.388-2.166.388-.752 0-2.484-.248-2.59-2.508l5.581.017.023-.11c.035-.176.052-.413.052-.722 0-1.804-.899-3.91-3.43-3.91z" fill="#FFFFFE"/></g></svg>