<svg xmlns="http://www.w3.org/2000/svg" xmlns:xlink="http://www.w3.org/1999/xlink" width="102" height="21" viewBox="0 0 102 21"><defs><linearGradient id="a" x1="19.215%" x2="69.302%" y1="-35.157%" y2="93.537%"><stop offset="0%" stop-color="#19A3B4"/><stop offset="34.817%" stop-color="#5BC3AF"/><stop offset="92.234%" stop-color="#C8F7A6"/><stop offset="100%" stop-color="#D7FEA5"/></linearGradient><path id="b" d="M14.427 6.746L2.485.202c-.338-.185-.65-.228-.903-.15l9.78 9.749 3.065-3.055"/><linearGradient id="c" x1="-14.698%" x2="74.844%" y1="-114.322%" y2="114.156%"><stop offset="0%" stop-color="#FC227C"/><stop offset="100%" stop-color="#FEEB7B"/></linearGradient><linearGradient id="d" x1="28.151%" x2="48.188%" y1="-14.814%" y2="82.894%"><stop offset="0%" stop-color="#0E4DA0"/><stop offset="100%" stop-color="#6BFED4"/></linearGradient><path id="e" d="M1.581.053C1.218.166.983.533.983 1.087l.002 17.45c0 .55.228.91.58 1.03l9.798-9.765L1.58.052"/><linearGradient id="f" x1="132.245%" x2="5.959%" y1="16.466%" y2="126.31%"><stop offset="0%" stop-color="#FC472E"/><stop offset=".332%" stop-color="#FC472F"/><stop offset="100%" stop-color="#893CD8"/></linearGradient><path id="g" d="M1.565 19.568c.255.085.573.045.92-.144l11.956-6.554-3.078-3.068-9.798 9.766"/></defs><g fill="none" fill-rule="evenodd"><g transform="translate(-.25 .7)"><use fill="url(#a)" xlink:href="#b"/><path fill="url(#c)" d="M14.442 12.87l4.077-2.234c.827-.454.827-1.194 0-1.647l-4.092-2.243-3.064 3.055 3.08 3.07"/><use fill="url(#d)" xlink:href="#e"/><use fill="url(#f)" xlink:href="#g"/></g><path fill="#FFF" d="M71.882 13.7l-.797.756c-.184.101-.367.22-.55.303-.553.253-1.115.317-1.615.317-.532 0-1.367-.035-2.217-.654-1.182-.838-1.7-2.277-1.7-3.531 0-2.597 2.103-3.87 3.817-3.87.6 0 1.215.15 1.715.468.833.554 1.048 1.273 1.167 1.658l-3.915 1.59-1.282.101c.415 2.13 1.847 3.368 3.43 3.368.79 0 1.377-.26 1.916-.527 0 0 .108-.057.03.02zM69.52 9.464l-3.032 1.323c-.017-.3-.05-.601-.05-.884 0-1.81 1.249-2.33 1.914-2.33.898 0 1.651.772 1.651 1.441 0 .234-.165.334-.483.45zm-5.825 4.106c0 .65.116.752.663.803.285.034.57.049.851.083l-.616.368h-2.935c.385-.502.451-.552.451-.887v-.373l-.006-9.96h-1.296L62.054 3h2.382c-.516.3-.67.484-.737 1.07l-.004 9.5zm-4.552-5.728c.383.316 1.18.987 1.18 2.26 0 1.24-.695 1.825-1.396 2.379-.215.217-.467.454-.467.82 0 .37.252.57.433.72l.602.468c.731.62 1.398 1.19 1.398 2.347 0 1.575-1.516 3.164-4.381 3.164-2.414 0-3.58-1.156-3.58-2.395 0-.604.298-1.458 1.283-2.043 1.033-.635 2.431-.72 3.18-.77-.233-.303-.5-.621-.5-1.14 0-.284.085-.454.167-.653-.183.017-.366.035-.533.035-1.766 0-2.765-1.325-2.765-2.631 0-.77.35-1.625 1.067-2.245.95-.786 2.082-.922 2.982-.922h3.432l-1.067.606h-1.035zm-1.18 7.436c-.136-.018-.218-.018-.383-.018-.151 0-1.051.033-1.748.268-.369.136-1.434.536-1.434 1.726 0 1.187 1.15 2.044 2.93 2.044 1.6 0 2.448-.771 2.448-1.81 0-.853-.55-1.304-1.813-2.21zm.479-3.183c-.264.265-.713.47-1.13.47-1.431 0-2.082-1.86-2.082-2.983 0-.435.085-.888.367-1.237a1.548 1.548 0 0 1 1.165-.555c1.384 0 2.099 1.877 2.099 3.081 0 .304-.034.838-.419 1.224zm-9.625 2.946c-2.647 0-4.064-2.073-4.064-3.95 0-2.194 1.781-4.07 4.314-4.07 2.448 0 3.982 1.927 3.982 3.951 0 1.977-1.516 4.069-4.232 4.069zm2.083-1.355c-.383.535-1.048.852-1.7.852-2.018 0-2.832-2.73-2.832-4.384 0-.723.116-1.46.767-2.046a2.315 2.315 0 0 1 1.501-.568c2.066 0 2.764 2.813 2.764 4.288 0 .653-.097 1.322-.5 1.858zM39.954 15.04c-2.648 0-4.062-2.073-4.062-3.95 0-2.194 1.78-4.07 4.313-4.07 2.447 0 3.979 1.927 3.979 3.951 0 1.977-1.514 4.069-4.23 4.069zm2.083-1.355c-.385.535-1.048.852-1.698.852-2.016 0-2.832-2.73-2.832-4.384 0-.723.115-1.46.766-2.046a2.31 2.31 0 0 1 1.499-.568c2.063 0 2.764 2.813 2.764 4.288 0 .653-.1 1.322-.5 1.858zm-7.204.774l-2.233.514c-.905.143-1.717.27-2.577.27-4.307 0-5.948-3.189-5.948-5.684 0-3.047 2.325-5.873 6.307-5.873a9.05 9.05 0 0 1 2.391.328c1.17.33 1.718.738 2.06.976l-1.297 1.24-.547.122.39-.624c-.528-.52-1.499-1.477-3.341-1.477-2.464 0-4.322 1.884-4.322 4.633 0 2.953 2.122 5.73 5.525 5.73 1 0 1.515-.202 1.982-.39v-2.532l-2.358.128 1.25-.675h3.309l-.405.391c-.11.094-.124.126-.154.25-.017.144-.032.598-.032.758v1.915zm41.85-.689v4.266h-.843V7.181h.843v1.237a3.344 3.344 0 0 1 2.716-1.433c2.09 0 3.497 1.594 3.497 4.117 0 2.506-1.408 4.133-3.497 4.133-1.1 0-2.085-.57-2.716-1.464zm5.307-2.669c0 1.905-.985 3.368-2.733 3.368-1.085 0-2.123-.89-2.574-1.639V9.356c.45-.748 1.489-1.606 2.574-1.606 1.748 0 2.733 1.45 2.733 3.352zm2.056-6.918h.842V15.04h-.842V4.184zm10.295 13.152c.18.08.488.13.683.13.515 0 .874-.212 1.196-.96l.615-1.4-3.319-7.925h.94l2.847 6.867 2.819-6.867h.953l-4.048 9.587c-.42.988-1.08 1.463-1.988 1.463-.273 0-.632-.049-.842-.114l.144-.781zm-2.46-2.32a14.663 14.663 0 0 1-.13-.713c-.026-.2-.04-.404-.04-.612-.29.426-.699.781-1.221 1.06-.523.282-1.02.42-1.702.42-.82 0-1.458-.203-1.912-.615-.454-.412-.682-.969-.682-1.674s.33-1.277.989-1.714c.658-.44 1.51-.658 2.563-.658h1.964v-.976c0-.562-.19-1.004-.57-1.325-.383-.321-.919-.484-1.614-.484-.635 0-1.15.149-1.542.438-.39.295-.585.66-.585 1.1h-.863l-.017-.042c-.031-.594.239-1.114.813-1.564.571-.45 1.32-.675 2.241-.675.919 0 1.662.222 2.222.666.56.44.84 1.074.84 1.904v3.877c0 .278.014.547.049.81.035.262.092.524.167.777h-.97zm-2.99-.617c.716 0 1.23-.16 1.756-.479.522-.316.877-.729 1.063-1.228v-1.509h-1.974c-.754 0-1.378.168-1.87.506-.492.338-.74.746-.74 1.221 0 .449.157.807.471 1.079.315.274.745.41 1.294.41z"/></g></svg>