<svg xmlns="http://www.w3.org/2000/svg" width="23" height="24" viewBox="0 0 23 24"><path fill="#FFF" d="M21.319.307H1.91C.981.307.228 1.043.228 1.95v19.636c0 .906.753 1.642 1.682 1.642h19.409c.93 0 1.684-.736 1.684-1.642V1.95c0-.907-.754-1.642-1.684-1.642zM7.13 19.494H3.69V9.144h3.44v10.35zM5.41 7.73h-.023c-1.154 0-1.9-.795-1.9-1.788 0-1.015.77-1.788 1.946-1.788 1.177 0 1.9.773 1.924 1.788 0 .993-.748 1.788-1.947 1.788zm14.124 11.763h-3.44v-5.538c0-1.39-.497-2.34-1.742-2.34-.95 0-1.516.64-1.765 1.258-.091.221-.113.53-.113.84v5.78h-3.44s.045-9.38 0-10.35h3.44v1.465c.457-.705 1.274-1.71 3.1-1.71 2.263 0 3.96 1.48 3.96 4.66v5.935z"/></svg>