<svg xmlns="http://www.w3.org/2000/svg" width="56" height="72" viewBox="0 0 56 72">
    <g fill="none" fill-rule="nonzero">
        <path fill="#7C8387" d="M4 1.8A2.2 2.2 0 0 0 1.8 4v64A2.2 2.2 0 0 0 4 70.2h48a2.2 2.2 0 0 0 2.2-2.2V4A2.2 2.2 0 0 0 52 1.8H4zM4 0h48a4 4 0 0 1 4 4v64a4 4 0 0 1-4 4H4a4 4 0 0 1-4-4V4a4 4 0 0 1 4-4z"/>
        <g fill="#06C">
            <path d="M36.9 29.584V27.61c0-2.68-2.196-4.848-4.9-4.848h-8c-2.704 0-4.9 2.168-4.9 4.848v1.974a.9.9 0 1 0 1.8 0V27.61c0-1.68 1.385-3.048 3.1-3.048h8c1.715 0 3.1 1.368 3.1 3.048v1.974a.9.9 0 1 0 1.8 0zM28 20.614c-2.704 0-4.9-2.168-4.9-4.848 0-2.68 2.196-4.848 4.9-4.848s4.9 2.168 4.9 4.848c0 2.68-2.196 4.848-4.9 4.848zm0-1.8c1.715 0 3.1-1.367 3.1-3.048 0-1.68-1.385-3.048-3.1-3.048s-3.1 1.367-3.1 3.048 1.385 3.048 3.1 3.048z"/>
        </g>
        <g fill="#BEBEBE">
            <path d="M23.379 60.544c-.748-1.368-1.143-3.046-1.143-4.862 0-3.053 2.588-5.537 5.764-5.537 3.182 0 5.764 2.484 5.764 5.537 0 .347.278.63.618.63.34 0 .618-.283.618-.63 0-3.753-3.139-6.799-7-6.799s-7 3.053-7 6.799c0 2.03.451 3.929 1.304 5.48.834 1.52 1.414 2.22 2.483 3.324.124.126.278.19.439.19a.549.549 0 0 0 .426-.19.632.632 0 0 0 .006-.89c-.951-.977-1.482-1.601-2.28-3.052zM20.94 42.888c2.176-1.12 4.548-1.69 7.067-1.69 2.525 0 4.637.51 7.067 1.696.095.042.19.066.292.066.228 0 .45-.12.564-.323a.587.587 0 0 0-.273-.81C33.07 40.564 30.71 40 28.007 40c-2.728 0-5.31.617-7.676 1.834a.585.585 0 0 0-.254.815.656.656 0 0 0 .863.24z"/>
            <path d="M28.468 45.922c-4.12 0-7.888 2.231-9.593 5.68-.581 1.169-.875 2.516-.875 4 0 1.668.307 3.263.932 4.889a.65.65 0 0 0 .824.364.617.617 0 0 0 .377-.797c-.76-1.972-.85-3.492-.85-4.456 0-1.298.25-2.467.748-3.468 1.495-3.029 4.81-4.982 8.443-4.982 5.104 0 9.255 3.79 9.255 8.45 0 1.328-1.194 2.404-2.657 2.404-1.462 0-2.657-1.082-2.657-2.404 0-2.01-1.763-3.641-3.934-3.641-2.172 0-3.935 1.632-3.935 3.64 0 2.442.984 4.735 2.766 6.454 1.38 1.328 2.708 2.058 4.745 2.596a.632.632 0 0 0 .78-.426c.095-.328-.109-.668-.447-.761-1.802-.476-2.977-1.119-4.184-2.281-1.54-1.483-2.389-3.468-2.389-5.575 0-1.33 1.195-2.405 2.657-2.405 1.463 0 2.657 1.082 2.657 2.405 0 2.009 1.77 3.64 3.935 3.64S39 57.617 39 55.608c0-5.34-4.726-9.686-10.532-9.686z"/>
            <path d="M39.88 47.964c-1.27-1.559-2.88-2.78-4.79-3.644-4.024-1.817-9.159-1.81-13.176.011-1.916.869-3.532 2.102-4.797 3.672-.204.252-.134.6.154.78.114.066.242.1.37.1a.685.685 0 0 0 .524-.23c1.143-1.424 2.606-2.54 4.337-3.324 3.66-1.66 8.341-1.665 12.007-.011 1.725.773 3.18 1.883 4.33 3.296.205.252.607.308.895.129.287-.18.351-.527.147-.78zM36.255 60.404a8.785 8.785 0 0 1-1.323.114c-1.266 0-2.317-.281-3.21-.855-1.538-.987-2.456-2.579-2.456-4.26 0-.329-.285-.598-.633-.598-.348 0-.633.27-.633.598 0 2.082 1.127 4.044 3.007 5.252 1.095.7 2.418 1.06 3.925 1.06.177 0 .804-.007 1.545-.132.342-.06.576-.371.513-.694a.634.634 0 0 0-.735-.485z"/>
        </g>
    </g>
</svg>
