<svg xmlns="http://www.w3.org/2000/svg" width="60" height="72" viewBox="0 0 60 72">
    <g fill="none" fill-rule="evenodd" transform="translate(1 1)">
        <path stroke="#BEBEBE" stroke-width="1.6" d="M12 0h43c1.65 0 3 1.351 3 3v57c0 1.65-1.35 3-3 3H19.549L9 52.54V3c0-1.649 1.351-3 3-3z"/>
        <path fill="#FFF" stroke="#7C8387" stroke-linecap="round" stroke-linejoin="round" stroke-width="1.6" d="M0 69.732V7.188A3.198 3.198 0 0 1 3.19 4H49.96a3.198 3.198 0 0 1 3.19 3.188v62.544l-5.647-6.35-6.836 6.35-6.7-6.35-6.882 6.35-6.79-6.35-6.878 6.35-6.434-6.35L0 69.732z"/>
        <circle cx="27" cy="27" r="13" fill="#FFFBFB" stroke="#06C" stroke-width="1.6"/>
        <path fill="#06C" d="M26.182 32.767c-1.009-.08-1.856-.32-2.541-.723A4.442 4.442 0 0 1 22 30.354l1.377-1.292c.204.544.558.992 1.063 1.343a4.103 4.103 0 0 0 1.742.68V27.99c-.76-.147-1.402-.32-1.93-.518a3.188 3.188 0 0 1-1.317-.91c-.351-.408-.527-.952-.527-1.632 0-.895.334-1.646 1.003-2.253.669-.606 1.592-.966 2.771-1.079V20h1.462v1.598c.918.068 1.669.278 2.253.629.583.351 1.107.856 1.572 1.513l-1.309 1.343c-.317-.567-.671-.992-1.063-1.275-.39-.283-.875-.459-1.453-.527v3.162a12.5 12.5 0 0 1 1.93.544 3.19 3.19 0 0 1 1.317.935c.351.42.527.975.527 1.666 0 .895-.346 1.623-1.037 2.184-.691.562-1.604.887-2.737.978v1.598h-1.462v-1.581zm0-9.469c-.533.08-.938.246-1.215.502-.278.255-.417.58-.417.977 0 .363.139.646.416.85.278.204.683.374 1.216.51v-2.839zm3.111 6.409c0-.374-.142-.666-.425-.876-.283-.21-.691-.382-1.224-.518v2.771c1.1-.125 1.649-.584 1.649-1.377z"/>
        <path stroke="#BEBEBE" stroke-dasharray="1,4" stroke-linecap="round" stroke-width="1.6" d="M18.5 49h16.492M18.5 53h16.492"/>
    </g>
</svg>
