<svg xmlns="http://www.w3.org/2000/svg" width="24" height="18" viewBox="0 0 24 18"><path fill="#FFF" d="M23.844 3.976c0-2.11-1.552-3.807-3.469-3.807A169.82 169.82 0 0 0 12.424 0h-.844c-2.7 0-5.354.047-7.951.169C1.716.169.164 1.875.164 3.985A68.69 68.69 0 0 0 0 8.992a71.654 71.654 0 0 0 .16 5.011c0 2.11 1.551 3.821 3.464 3.821 2.729.127 5.528.183 8.373.178 2.85.01 5.64-.046 8.373-.178 1.918 0 3.47-1.71 3.47-3.82a71.84 71.84 0 0 0 .159-5.017 68.888 68.888 0 0 0-.155-5.011zM9.704 13.59V4.379l6.799 4.603-6.798 4.609z"/></svg>